<?xml version="1.0" standalone="no"?>
<!DOCTYPE svg PUBLIC "-//W3C//DTD SVG 20010904//EN"
 "http://www.w3.org/TR/2001/REC-SVG-20010904/DTD/svg10.dtd">
<svg version="1.0" xmlns="http://www.w3.org/2000/svg"
 width="870.000000pt" height="870.000000pt" viewBox="0 0 870.000000 870.000000"
 preserveAspectRatio="xMidYMid meet">
<metadata>
Created by potrace 1.14, written by Peter Selinger 2001-2017
</metadata>
<g transform="translate(0.000000,870.000000) scale(0.100000,-0.100000)"
fill="#000000" stroke="none">
<path d="M3162 8694 c8 -7 387 -8 395 0 4 3 -85 6 -197 6 -112 0 -201 -2 -198
-6z"/>
<path d="M4078 8693 c12 -2 30 -2 40 0 9 3 -1 5 -23 4 -22 0 -30 -2 -17 -4z"/>
<path d="M4333 8693 c-37 -7 -299 -117 -433 -181 -117 -56 -254 -132 -258
-143 -2 -5 -9 -9 -14 -9 -24 0 -169 -93 -164 -105 3 -8 -1 -16 -9 -19 -8 -3
-15 0 -18 7 -2 7 -10 1 -17 -13 -19 -36 -123 -134 -106 -100 5 9 2 8 -7 -2 -8
-10 -18 -14 -22 -10 -5 4 -5 1 -1 -6 10 -17 -18 -48 -50 -56 -13 -4 -24 -11
-24 -16 0 -6 -5 -10 -11 -10 -5 0 -7 5 -4 10 10 16 -1 11 -16 -7 -12 -14 -12
-15 0 -9 10 7 11 3 5 -15 -4 -13 -7 -30 -7 -36 0 -16 -29 -25 -51 -17 -9 3
-16 2 -16 -2 -1 -5 -5 -28 -9 -51 -7 -36 -6 -43 8 -44 10 0 7 -4 -8 -10 -15
-6 -28 -6 -36 1 -12 10 -25 4 -25 -12 0 -5 5 -6 10 -3 6 3 10 -1 10 -9 0 -9
-3 -15 -7 -15 -23 4 -29 -4 -27 -31 1 -19 -3 -30 -11 -30 -8 0 -20 -8 -27 -17
-26 -36 -47 -43 -132 -49 -71 -5 -86 -4 -86 8 0 8 4 18 10 24 12 12 -31 78
-60 94 -23 12 -27 47 -5 47 8 0 13 -2 10 -5 -2 -3 0 -13 6 -23 7 -15 20 -19
57 -18 l47 1 -40 13 c-22 8 -33 14 -25 14 8 1 1 8 -15 16 -28 14 -46 55 -24
55 5 0 9 7 9 16 0 10 -6 14 -14 11 -8 -3 -20 2 -28 11 -9 11 -10 14 0 8 7 -4
12 -2 12 4 0 6 5 8 12 4 7 -4 8 -3 4 5 -4 6 -12 9 -17 6 -5 -4 -16 -2 -25 3
-15 8 -15 10 1 16 9 3 21 4 26 0 5 -3 9 -1 9 5 0 6 11 6 29 1 16 -4 33 -5 37
-2 4 4 4 1 0 -6 -12 -21 35 -32 62 -14 34 22 15 33 -74 42 -78 8 -108 5 -99
-10 2 -4 -8 -6 -23 -4 -26 3 -28 1 -24 -26 2 -17 8 -30 13 -30 5 0 9 -4 9 -10
0 -24 -72 2 -114 42 -12 11 -50 35 -86 53 -36 17 -78 39 -95 48 -75 41 -205
81 -340 106 -132 24 -226 34 -206 22 8 -5 21 -6 30 -3 13 5 14 3 3 -10 -10
-12 -10 -18 2 -27 8 -7 13 -29 12 -56 -1 -43 -10 -54 -32 -37 -5 4 1 -3 13
-15 28 -27 29 -33 2 -33 -16 0 -20 -5 -17 -27 3 -29 -7 -33 -44 -18 -13 5 -18
2 -18 -9 0 -17 -19 -21 -79 -17 -21 2 -31 -1 -27 -8 4 -5 12 -8 19 -5 15 5 21
-33 7 -41 -5 -3 -20 0 -32 6 -20 11 -21 10 -10 -3 10 -13 77 -37 175 -65 10
-2 39 -25 65 -50 58 -55 171 -141 235 -178 42 -24 61 -45 40 -45 -5 0 -85 -12
-180 -26 -188 -29 -223 -28 -223 11 0 17 -16 36 -57 69 -32 25 -65 52 -73 60
-39 37 -207 80 -359 92 -36 3 -90 10 -120 15 -88 18 -247 13 -316 -8 -11 -3
-31 -14 -44 -24 -13 -11 -32 -19 -42 -19 -11 0 -19 -6 -19 -14 0 -15 18 -31
35 -31 6 0 10 -12 10 -27 1 -18 -4 -28 -13 -28 -8 0 -12 6 -9 13 5 13 -19 54
-27 46 -13 -13 42 -100 92 -147 133 -125 303 -214 407 -214 17 0 38 -4 45 -8
15 -9 -1 -15 -70 -25 -104 -16 -277 -85 -424 -168 -58 -33 -270 -194 -286
-218 -3 -4 -55 -59 -115 -121 -61 -62 -119 -126 -130 -141 -11 -16 -44 -60
-73 -99 -47 -64 -57 -81 -49 -92 1 -2 -5 -12 -14 -22 -27 -31 -46 -76 -52
-124 -3 -25 -13 -59 -22 -77 -15 -31 -18 -75 -8 -140 l5 -31 46 49 c25 27 50
49 56 49 6 0 28 15 49 34 27 24 51 35 85 40 51 7 126 29 182 53 89 39 191 90
250 126 36 22 91 54 122 71 77 42 189 137 255 216 30 36 64 76 77 90 36 39 78
119 70 133 -4 6 -3 8 1 4 11 -9 132 239 144 296 5 21 14 44 19 49 7 7 7 17 -1
29 -9 15 -8 21 8 33 11 9 36 18 55 21 19 3 60 11 90 17 30 6 64 12 75 14 11 1
104 23 206 48 161 40 223 52 311 61 10 0 21 4 24 8 10 10 54 9 54 -1 0 -5 -15
-16 -33 -25 -17 -9 -44 -26 -58 -38 l-27 -21 -28 21 c-31 22 -74 19 -74 -5 0
-17 -5 -17 -32 -3 -16 9 -25 6 -47 -14 -28 -26 -148 -107 -159 -107 -18 -2
-156 -117 -158 -133 -4 -32 -13 -47 -26 -47 -9 0 -8 3 2 10 13 8 13 10 1 10
-11 0 -9 4 5 15 10 8 14 15 9 15 -17 0 -166 -151 -159 -161 3 -5 2 -8 -3 -7
-10 3 -97 -84 -143 -144 -57 -74 -72 -96 -71 -102 0 -3 -13 -20 -28 -37 -38
-41 -136 -217 -196 -349 -61 -134 -84 -181 -103 -203 -9 -10 -17 -24 -18 -31
-1 -8 -11 -23 -23 -35 -12 -12 -21 -27 -22 -33 -3 -62 -17 -107 -59 -194 -31
-65 -55 -131 -66 -185 -9 -46 -27 -106 -40 -134 -21 -45 -22 -51 -7 -67 15
-17 14 -19 -19 -33 -36 -15 -54 -48 -42 -79 4 -11 14 -14 37 -9 18 3 34 9 37
12 6 7 66 30 93 36 10 2 30 10 45 18 15 7 61 31 102 52 41 21 93 50 115 65 92
62 173 109 223 130 28 12 52 25 52 29 0 4 24 19 53 34 90 46 238 170 292 246
5 8 39 41 74 75 112 107 319 319 371 381 41 49 137 198 144 225 11 39 27 70
73 138 47 69 114 199 145 280 12 32 30 59 46 69 15 9 29 18 31 20 3 2 -3 9
-13 16 -14 10 -15 17 -6 41 5 15 17 72 26 125 20 128 17 122 72 163 39 29 63
38 142 52 131 24 187 29 194 18 14 -23 -37 -230 -61 -244 -6 -5 -9 -17 -6 -27
5 -18 13 -20 118 -18 62 2 119 8 126 14 8 6 32 11 54 12 119 4 215 24 215 43
0 4 9 8 20 8 11 0 23 6 26 14 3 8 27 16 54 20 33 4 53 13 59 25 11 20 60 55
67 48 3 -3 -30 -49 -74 -103 -74 -92 -142 -192 -142 -208 0 -4 6 -4 13 0 7 4
9 3 4 -2 -5 -5 -14 -9 -20 -9 -5 0 -18 -13 -28 -30 -40 -65 -60 -107 -55 -112
3 -3 12 11 20 31 15 36 38 66 51 66 3 0 3 -4 0 -10 -3 -5 1 -10 9 -10 9 0 16
-6 16 -12 0 -9 3 -9 8 -2 8 12 43 28 56 25 5 -1 3 6 -5 15 -9 12 -9 15 -1 10
6 -4 12 -3 12 2 0 6 7 12 15 16 19 7 20 -27 1 -46 -15 -16 -47 -74 -45 -84 0
-4 -3 -10 -8 -13 -10 -7 -33 -67 -40 -101 -2 -14 7 0 20 30 13 30 35 78 50
105 14 28 38 75 53 105 15 30 30 57 34 60 6 5 42 63 80 132 8 15 41 67 73 115
32 48 67 103 78 121 10 17 45 48 76 68 32 20 70 48 85 61 34 33 55 21 29 -15
-11 -15 -28 -36 -38 -47 -51 -55 -81 -105 -196 -325 -33 -63 -63 -121 -68
-130 -14 -25 -70 -151 -90 -205 -11 -27 -24 -59 -29 -70 -15 -31 -61 -182 -80
-265 -15 -60 -16 -71 -4 -55 45 62 74 83 125 90 28 4 53 13 56 21 3 8 20 14
42 14 20 0 43 6 50 13 10 10 52 15 141 17 13 0 27 -3 32 -8 7 -7 2 -8 -89 -14
-51 -3 -64 -10 -43 -23 6 -4 10 -12 9 -18 -3 -26 3 -71 8 -54 6 24 33 22 33
-3 0 -26 31 -26 49 -1 14 19 14 19 34 0 14 -13 23 -16 28 -8 4 6 12 9 18 5 5
-4 19 2 30 13 17 17 26 19 46 11 21 -8 25 -7 25 10 0 11 5 20 10 20 6 0 10 5
10 10 0 6 -7 10 -15 10 -13 0 -14 4 -5 21 11 19 13 20 37 4 21 -14 27 -15 34
-4 7 11 9 9 10 -6 1 -11 0 -27 -1 -34 -1 -13 1 -13 14 -2 13 11 17 11 22 -3 4
-10 13 -15 22 -11 11 4 12 2 5 -7 -10 -13 -53 -113 -58 -133 -4 -17 -16 -49
-26 -69 -7 -13 -7 -16 0 -11 6 3 11 -1 11 -10 0 -9 -5 -13 -10 -10 -6 4 -19 1
-28 -7 -15 -12 -16 -11 -3 5 9 12 10 17 2 17 -7 0 -10 3 -8 8 3 4 -8 7 -24 8
-17 1 -26 -3 -22 -9 3 -6 1 -7 -6 -3 -6 4 -9 12 -6 17 4 5 2 9 -3 9 -5 0 -12
9 -15 21 -3 12 -10 18 -16 15 -6 -4 -8 -13 -4 -21 5 -14 -14 -21 -42 -15 -5 1
-6 -2 -2 -7 5 -4 16 -8 25 -8 9 0 16 -6 14 -14 -3 -12 -1 -12 14 0 13 10 16
10 10 1 -4 -7 -3 -18 3 -25 13 -17 -3 -42 -20 -31 -11 6 -12 5 -3 -7 12 -14
15 -49 5 -46 -3 1 -17 -6 -31 -16 -15 -11 -19 -17 -10 -17 10 0 11 -3 4 -8 -6
-4 -14 -20 -18 -37 -7 -28 -6 -28 7 -11 9 12 19 16 27 11 10 -6 12 -4 7 9 -4
10 -3 15 3 11 6 -3 10 -14 10 -23 0 -12 3 -13 11 -5 6 6 18 9 25 6 8 -3 14 0
14 6 0 6 -7 11 -16 11 -9 0 -12 5 -8 12 5 8 2 9 -9 5 -9 -3 -19 -3 -21 2 -3 4
8 7 24 7 16 0 27 -3 24 -8 -3 -4 2 -5 10 -2 10 4 18 -1 22 -11 4 -9 13 -14 20
-11 8 3 11 0 7 -10 -6 -16 11 -17 42 -4 17 7 17 9 3 9 -22 1 -24 20 -3 22 34
3 40 5 38 16 -1 6 3 10 10 10 41 -1 67 4 62 13 -3 6 -1 10 4 10 6 0 11 -4 11
-10 0 -5 11 -10 25 -10 18 0 26 7 31 25 3 14 4 32 0 40 -3 8 -1 15 5 15 6 0 7
5 4 10 -3 6 -1 10 4 10 6 0 12 -4 12 -10 1 -5 2 -15 3 -21 0 -6 10 -17 20 -25
11 -8 14 -14 8 -14 -7 0 -12 -4 -12 -10 0 -5 7 -7 15 -4 18 7 20 -10 3 -28
-15 -16 -17 -50 -3 -60 5 -4 0 -11 -13 -15 l-22 -8 24 -30 c13 -17 28 -27 32
-22 4 4 -1 14 -12 21 -15 12 -17 17 -6 27 10 11 12 10 12 -4 0 -9 7 -17 16
-17 9 0 12 5 8 12 -4 6 -3 8 4 4 6 -3 18 1 27 11 14 14 18 14 26 2 7 -11 9
-11 9 4 0 9 -5 17 -11 17 -5 0 -7 5 -3 11 4 7 14 0 26 -19 12 -20 25 -29 34
-25 12 4 13 8 4 13 -7 5 -9 13 -5 21 6 9 3 11 -10 5 -13 -5 -15 -3 -8 6 19 24
25 68 10 74 -19 7 -17 34 2 35 9 1 5 4 -9 8 -24 7 -36 35 -15 37 6 0 18 4 27
8 25 11 58 -11 58 -40 0 -14 -4 -22 -10 -19 -17 11 -11 -3 11 -24 18 -17 26
-34 28 -65 1 -5 7 -4 14 2 6 6 24 8 38 5 20 -4 26 -10 24 -26 -4 -32 -4 -33
-15 -17 -8 13 -10 13 -10 -2 0 -9 -6 -18 -12 -21 -7 -2 -9 -8 -5 -13 5 -5 21
-1 38 8 16 9 29 13 29 8 0 -6 -5 -10 -11 -10 -5 0 -7 -4 -4 -10 3 -5 1 -19 -5
-31 -10 -17 -8 -24 7 -38 20 -19 63 -23 56 -5 -2 6 3 14 11 17 21 8 20 27 0
27 -18 0 -43 27 -44 48 0 6 7 12 16 12 13 0 14 -3 5 -14 -10 -12 -7 -18 18
-31 17 -8 31 -23 31 -32 0 -19 28 -42 52 -43 22 0 73 -50 83 -79 3 -11 10 -21
15 -21 5 0 8 -12 8 -28 -1 -41 11 -72 29 -72 15 0 15 2 1 18 -23 24 -19 133 5
160 16 17 16 20 2 32 -23 19 -65 108 -59 125 4 9 0 15 -10 15 -9 0 -16 8 -16
19 0 10 -7 24 -15 31 -9 7 -13 21 -10 31 5 14 -3 24 -27 39 -24 14 -28 20 -14
20 15 0 17 5 12 33 -8 37 -15 79 -20 122 -8 60 -11 70 -26 82 -13 11 -13 12 1
13 12 0 15 12 13 60 0 33 -4 63 -8 67 -3 3 2 15 11 25 13 15 14 21 5 27 -7 4
-10 15 -6 24 4 11 0 19 -10 23 -9 3 -16 16 -16 28 1 21 1 21 17 1 15 -19 15
-19 9 7 -3 15 -2 29 3 33 12 7 -4 65 -21 77 -8 6 -4 7 10 3 21 -6 23 -4 17 14
-7 23 11 55 26 45 10 -6 12 5 34 141 17 106 33 155 51 155 6 0 23 -25 38 -55
14 -30 31 -55 37 -55 5 0 15 -11 21 -25 16 -36 43 -31 64 13 10 20 17 43 16
50 -2 6 4 12 13 12 9 0 14 4 11 9 -4 5 8 13 26 16 34 8 51 23 41 38 -3 5 -9 4
-13 -3 -5 -7 -13 -9 -21 -5 -9 6 -7 10 7 16 13 4 20 18 22 39 1 18 7 40 12 49
4 9 12 45 15 78 5 41 13 64 22 67 10 4 13 14 9 31 -4 14 -2 25 3 25 5 0 13 10
17 23 7 24 84 134 122 176 41 45 49 55 61 78 6 12 17 20 25 17 7 -3 16 2 19
10 4 9 14 16 23 16 8 0 14 6 11 13 -6 17 12 49 24 42 5 -4 9 3 9 14 0 12 5 21
10 21 15 0 50 38 50 53 0 8 12 24 26 38 15 14 23 31 20 41 -3 13 18 38 67 84
60 55 64 72 6 26 -13 -10 -18 -10 -29 3 -17 20 -31 9 -24 -19 4 -18 -1 -28
-24 -44 -30 -22 -50 -19 -31 5 17 20 1 16 -28 -7 -14 -11 -34 -20 -44 -20 -10
0 -23 -8 -28 -17 -10 -17 -10 -16 -11 2 0 22 97 125 118 125 7 0 21 6 32 12
16 10 24 10 41 0 27 -17 20 -22 222 147 81 67 101 106 78 149 -11 21 -13 21
-834 20 -452 0 -832 -3 -844 -5z m702 -52 c33 -5 110 -12 170 -16 61 -3 141
-11 180 -17 l69 -10 -25 -22 c-14 -12 -41 -49 -62 -83 -20 -33 -53 -73 -72
-87 l-35 -27 -188 4 c-130 3 -191 1 -201 -7 -11 -8 -13 -8 -8 0 5 8 -17 10
-73 8 -59 -2 -80 0 -80 9 0 14 158 170 189 186 11 6 23 21 27 33 12 40 20 42
109 29z m-735 -235 c0 -2 2 -11 5 -19 4 -9 -27 -33 -102 -77 -59 -35 -109 -67
-111 -72 -2 -4 -9 -8 -15 -8 -7 0 -34 -15 -62 -32 -27 -18 -63 -40 -80 -50
-42 -26 -189 -97 -193 -94 -6 7 11 36 22 36 7 0 23 11 36 25 12 13 38 29 56
35 19 7 34 16 34 21 0 5 6 9 13 9 8 0 22 9 32 20 10 11 22 20 26 20 4 0 29 15
55 33 25 17 60 40 78 50 17 11 40 27 52 38 11 10 26 19 33 19 7 0 26 11 43 25
25 21 78 35 78 21z m1094 -60 c-6 -16 -24 -23 -24 -8 0 10 22 33 27 28 2 -2 1
-11 -3 -20z m-1394 -1 c0 -8 -5 -15 -11 -15 -7 0 -73 -30 -148 -67 -166 -83
-164 -82 -121 -44 19 17 38 31 43 31 4 0 26 12 50 27 64 41 150 83 170 83 9 0
17 -7 17 -15z m613 -105 c16 0 38 5 49 11 26 14 278 19 278 6 0 -13 -32 -36
-51 -37 -8 0 -35 -9 -58 -21 -24 -11 -51 -22 -60 -24 -18 -3 -135 -49 -201
-78 -58 -25 -210 -77 -210 -71 0 2 -22 -7 -50 -21 -93 -47 -86 -35 67 120 16
17 57 56 91 87 60 56 62 57 89 43 15 -8 41 -15 56 -15z m453 -107 c-7 -26 -30
-136 -31 -148 0 -6 -9 -28 -19 -50 -13 -26 -20 -67 -22 -119 -4 -89 -26 -144
-80 -200 -36 -37 -90 -163 -105 -244 -6 -31 -13 -64 -17 -72 -3 -8 -5 -18 -4
-22 1 -4 -5 -5 -13 -1 -9 3 -26 -4 -38 -15 -156 -147 -196 -186 -191 -194 3
-5 2 -7 -3 -6 -8 3 -103 -90 -103 -101 0 -3 -16 -24 -36 -46 -19 -22 -38 -52
-41 -67 -6 -28 -25 -51 -48 -54 -7 -1 -29 -10 -50 -20 -48 -22 -79 -22 -183 2
-52 11 -86 15 -90 9 -12 -17 -52 -16 -52 1 0 11 8 14 26 12 29 -3 33 1 62 72
11 25 29 68 40 95 41 95 80 200 87 235 4 19 14 44 21 55 16 24 44 101 48 130
7 50 60 185 90 230 48 70 64 166 34 190 -32 24 3 53 99 81 7 2 21 17 32 35 20
33 49 52 97 63 30 7 207 62 234 73 8 3 21 5 28 4 6 -1 12 3 12 9 0 5 7 10 16
10 8 0 34 9 57 19 24 11 55 23 70 26 15 4 30 11 33 16 3 5 14 9 25 9 15 0 19
-5 15 -17z m-1347 -140 c7 -25 7 -41 0 -49 -11 -14 -118 -70 -208 -110 l-55
-24 20 22 c47 55 181 181 199 189 31 12 33 11 44 -28z m-1749 -47 c0 -7 -8
-31 -17 -52 -12 -28 -18 -34 -21 -21 -2 9 -8 17 -13 17 -5 0 -9 7 -9 16 0 12
6 15 21 11 24 -7 39 21 18 34 -11 7 -11 9 4 9 9 0 17 -6 17 -14z m40 -5 c0 -6
-4 -13 -10 -16 -5 -3 -10 1 -10 9 0 9 5 16 10 16 6 0 10 -4 10 -9z m694 -41
c11 -8 13 -17 7 -23 -12 -12 -34 1 -27 18 3 8 -2 11 -15 8 -10 -3 -19 0 -19 6
0 14 33 9 54 -9z m-834 -18 c0 -13 -12 -22 -22 -16 -10 6 -1 24 13 24 5 0 9
-4 9 -8z m210 -16 c0 -3 -4 -8 -10 -11 -5 -3 -10 -1 -10 4 0 6 5 11 10 11 6 0
10 -2 10 -4z m-72 -91 c-10 -10 -49 -14 -43 -4 4 5 16 9 27 9 12 0 19 -2 16
-5z m-1214 -120 c3 -8 1 -15 -4 -15 -6 0 -10 7 -10 15 0 8 2 15 4 15 2 0 6 -7
10 -15z m881 -415 c3 -5 1 -10 -4 -10 -6 0 -11 5 -11 10 0 6 2 10 4 10 3 0 8
-4 11 -10z m3179 -46 c4 -10 1 -14 -6 -12 -15 5 -23 28 -10 28 5 0 13 -7 16
-16z m-3034 -15 c0 -6 -10 -24 -22 -40 -64 -83 -86 -108 -91 -103 -19 20 -133
-80 -262 -231 -33 -39 -62 -72 -66 -75 -33 -28 -139 -155 -139 -166 0 -22 28
-16 52 11 34 40 109 80 118 64 6 -8 -1 -20 -18 -33 -50 -38 -192 -191 -192
-206 0 -6 -7 -13 -15 -16 -8 -3 -19 -22 -25 -43 -6 -20 -33 -61 -61 -91 l-51
-55 6 35 c14 81 77 188 166 281 21 21 23 28 12 39 -11 10 -13 9 -10 -6 2 -11
-2 -18 -9 -17 -7 2 -12 -3 -10 -10 1 -6 -3 -11 -10 -10 -7 2 -10 -3 -8 -10 3
-6 -4 -18 -15 -25 -25 -15 -25 -11 0 32 58 104 176 261 289 385 42 46 81 90
86 97 26 33 250 203 268 204 4 0 7 -5 7 -11z m1570 -24 c0 -9 -6 -12 -15 -9
-8 4 -12 10 -9 15 8 14 24 10 24 -6z m-1864 -31 c-14 -13 -14 -19 -4 -33 11
-14 11 -14 -2 -4 -10 8 -21 9 -30 3 -8 -6 -11 -10 -7 -10 5 0 5 -5 2 -10 -4
-6 -11 -8 -16 -4 -6 3 7 23 28 44 21 21 39 37 42 35 2 -2 -4 -11 -13 -21z
m3226 -41 c-9 -61 -9 -438 0 -479 l7 -31 -44 2 c-24 1 -51 7 -59 14 -9 8 -16
10 -16 6 0 -4 -20 10 -43 32 -24 22 -59 46 -78 52 -36 12 -65 44 -71 77 -6 40
52 122 167 235 62 62 111 117 109 121 -3 4 3 5 12 1 12 -4 15 -3 10 5 -4 7 -3
12 3 12 7 0 8 -17 3 -47z m-3645 -41 c-8 -10 -23 -28 -33 -42 -29 -37 -104
-110 -159 -155 -27 -22 -57 -47 -67 -55 -28 -25 -187 -102 -197 -96 -6 4 5 21
22 40 18 18 67 71 109 118 56 62 83 85 96 82 10 -3 28 4 41 15 13 12 28 21 32
21 4 0 40 22 80 49 69 47 107 58 76 23z m822 -213 c-33 -24 -38 -14 -8 17 15
16 25 21 28 13 2 -6 -7 -20 -20 -30z m2495 -73 c-6 -17 -25 -21 -38 -9 -3 4 4
12 16 19 27 14 31 13 22 -10z m-3164 -18 c0 -6 -7 -5 -15 2 -8 7 -15 17 -15
22 0 6 7 5 15 -2 8 -7 15 -17 15 -22z m2954 -14 c3 -8 2 -12 -4 -9 -6 3 -10
10 -10 16 0 14 7 11 14 -7z m-369 -74 c3 -5 1 -10 -4 -10 -6 0 -11 5 -11 10 0
6 2 10 4 10 3 0 8 -4 11 -10z m369 -78 c3 -5 -1 -9 -9 -9 -8 0 -12 4 -9 9 3 4
7 8 9 8 2 0 6 -4 9 -8z m36 -23 c0 -5 -7 -9 -16 -9 -8 0 -12 -5 -9 -10 4 -6
11 -8 16 -5 5 4 9 -2 9 -11 0 -10 -3 -15 -6 -11 -7 7 -34 -17 -34 -29 0 -15
-34 -44 -52 -44 -17 0 -17 2 -4 29 9 16 12 31 9 35 -4 3 -2 6 4 6 5 0 15 11
21 25 7 15 20 25 32 25 14 0 19 4 14 12 -4 7 -3 8 4 4 7 -4 12 -11 12 -17z
m280 -19 c0 -11 -4 -20 -9 -20 -5 0 -7 9 -4 20 3 11 7 20 9 20 2 0 4 -9 4 -20z
m-6 -33 c29 6 41 -11 26 -34 -9 -15 -10 -14 -5 7 4 14 3 21 -2 15 -4 -5 -24
-11 -43 -12 -19 -1 -27 1 -18 3 9 3 16 11 14 17 -1 7 -1 9 1 6 2 -3 14 -4 27
-2z m-3400 -54 c-9 -7 -22 -10 -27 -6 -6 4 -8 0 -4 -10 8 -22 -2 -47 -17 -41
-6 2 -13 14 -13 26 -2 24 -20 39 -40 31 -7 -3 -13 -1 -13 5 0 5 7 12 15 16 8
3 15 1 15 -3 0 -5 7 -12 16 -15 19 -7 64 3 64 15 0 5 -8 6 -17 3 -15 -5 -15
-4 -3 4 10 8 18 7 28 -1 12 -9 11 -13 -4 -24z m3206 12 c14 -19 14 -19 -2 -6
-10 7 -18 18 -18 24 0 6 1 8 3 6 1 -2 9 -13 17 -24z m200 5 c0 -5 -2 -10 -4
-10 -3 0 -8 5 -11 10 -3 6 -1 10 4 10 6 0 11 -4 11 -10z m-420 -57 c0 -16 -6
-23 -20 -23 -11 0 -20 -4 -20 -10 0 -5 -11 -9 -25 -8 -14 1 -23 7 -21 13 2 5
8 9 14 8 6 -1 9 8 8 20 -3 20 2 23 31 23 27 -1 33 -5 33 -23z m-10 -94 c0 -12
-27 -12 -35 1 -4 6 1 7 11 3 13 -5 15 -3 9 7 -5 9 -4 11 3 6 7 -4 12 -11 12
-17z m-2540 -23 c0 -23 -54 -74 -201 -188 -19 -14 -49 -40 -68 -57 -40 -36
-64 -42 -34 -8 11 12 35 48 54 80 30 51 37 57 66 57 18 0 33 5 33 10 0 6 5 10
11 10 14 0 31 18 63 68 19 31 33 42 51 42 15 0 25 -6 25 -14z m-130 -24 c0 -5
-11 -19 -25 -32 -29 -27 -33 -19 -7 15 17 25 32 32 32 17z m3428 -27 c-3 -3
-9 2 -12 12 -6 14 -5 15 5 6 7 -7 10 -15 7 -18z m-128 -60 c10 -12 10 -15 -4
-15 -9 0 -16 7 -16 15 0 8 2 15 4 15 2 0 9 -7 16 -15z m-3920 -495 c-20 -13
-33 -13 -25 0 3 6 14 10 23 10 15 0 15 -2 2 -10z"/>
<path d="M7962 8681 c14 -12 29 -21 32 -21 3 0 14 -8 24 -17 31 -29 102 -86
141 -113 20 -14 42 -40 50 -58 8 -17 21 -32 28 -32 7 0 13 -4 13 -8 0 -12 49
-33 61 -27 29 18 -31 155 -106 240 l-44 50 -113 3 -113 4 27 -21z"/>
<path d="M8266 8688 c14 -24 77 -113 116 -164 21 -28 38 -58 38 -66 0 -8 11
-25 25 -38 14 -13 25 -28 25 -34 0 -6 9 -17 20 -24 26 -16 25 -30 -2 -53 -11
-11 -18 -22 -14 -26 4 -4 11 -2 15 5 5 9 17 11 34 7 15 -4 24 -11 21 -17 -3
-5 3 -12 15 -15 12 -3 21 -12 21 -19 0 -17 -12 -18 -27 -3 -8 8 -13 8 -17 0
-12 -19 -39 -12 -68 16 -18 17 -28 22 -28 13 0 -11 -3 -11 -12 -2 -10 10 -10
15 1 21 9 6 10 11 2 15 -6 4 -11 3 -11 -2 0 -16 -30 -23 -52 -11 -28 15 -41
-9 -44 -80 -1 -29 -5 -56 -10 -60 -5 -3 -9 -24 -9 -46 0 -22 -4 -46 -9 -53
-20 -28 0 -273 25 -307 13 -18 38 -177 43 -283 3 -56 11 -112 17 -123 6 -11 8
-23 5 -26 -3 -4 -1 -11 4 -18 7 -8 1 -20 -19 -39 l-29 -28 -16 25 c-16 24 -13
57 6 57 6 0 8 -7 4 -15 -3 -8 -2 -15 3 -15 5 0 14 7 21 15 10 12 10 15 -1 15
-12 0 -12 2 0 9 9 6 10 11 2 15 -6 4 -11 18 -11 32 0 17 -8 28 -27 37 -16 6
-31 16 -35 22 -20 31 -48 56 -57 50 -7 -3 -11 3 -11 14 0 12 3 20 8 20 19 -3
23 2 12 15 -6 8 -18 12 -26 9 -10 -4 -12 0 -8 13 4 11 4 16 -1 12 -4 -4 -14
-3 -22 3 -10 9 -13 7 -13 -10 0 -21 -2 -21 -45 10 -41 29 -64 71 -65 114 0 6
-8 24 -17 40 -9 17 -16 44 -17 60 -1 33 -30 77 -58 87 -10 4 -15 14 -11 26 3
14 -1 22 -15 26 -11 4 -29 24 -40 44 -11 22 -27 37 -38 38 -26 0 -55 15 -49
24 3 4 -8 10 -23 13 -22 4 -34 -2 -64 -35 -38 -40 -47 -58 -27 -58 5 0 7 -5 4
-10 -5 -8 -11 -8 -20 0 -9 8 -14 5 -18 -10 -3 -11 -13 -20 -24 -20 -15 0 -15
2 -3 10 12 8 12 10 -3 16 -10 3 -21 4 -24 0 -3 -3 -13 0 -21 7 -13 10 -14 7
-8 -25 8 -45 2 -48 -18 -10 -32 57 -14 -7 19 -73 105 -206 199 -311 317 -355
62 -23 71 -47 72 -213 1 -135 2 -139 26 -159 23 -19 25 -19 37 -2 7 10 13 26
13 35 0 21 38 89 50 89 5 0 12 -24 15 -54 l7 -54 35 10 c72 20 76 12 36 -73
-29 -61 -41 -76 -58 -76 -18 0 -21 4 -17 23 2 13 10 24 17 24 7 0 18 7 25 15
9 10 9 15 1 15 -6 0 -11 -6 -11 -12 0 -7 -5 -5 -11 5 -5 9 -7 22 -4 27 3 6 3
10 0 10 -3 0 -10 -13 -16 -28 -9 -26 -15 -29 -56 -30 -31 0 -49 -5 -55 -16
-11 -20 -34 -21 -42 -1 -8 21 -34 19 -87 -10 -50 -26 -64 -24 -48 6 14 28 14
113 0 204 -8 44 -14 91 -15 105 -1 14 -9 41 -18 60 -8 19 -26 60 -39 90 -13
30 -40 84 -61 121 -44 76 -184 248 -225 274 -18 12 -7 -4 30 -44 58 -63 70
-85 41 -74 -14 5 -15 3 -5 -14 8 -16 7 -24 -3 -32 -19 -16 -66 -4 -59 15 3 8
-1 14 -9 14 -8 0 -21 11 -28 25 -10 18 -24 26 -58 31 -41 6 -48 4 -67 -20 -22
-28 -41 -33 -48 -13 -7 18 -62 -15 -61 -36 1 -10 -5 -17 -16 -17 -29 0 -50 11
-50 27 0 8 -5 11 -10 8 -6 -4 -8 -11 -4 -16 3 -6 -2 -16 -12 -23 -16 -12 -14
-15 19 -31 36 -17 50 -38 25 -34 -33 4 -48 -3 -61 -27 -12 -23 -15 -24 -27 -9
-12 14 -12 18 1 26 11 7 11 9 -3 9 -10 0 -19 5 -19 10 -1 6 -2 15 -3 21 0 6
-10 17 -20 25 -11 7 -17 17 -13 20 4 4 13 1 22 -6 17 -14 21 0 3 18 -8 8 -17
8 -30 1 -15 -8 -22 -7 -32 7 -12 16 -13 15 -19 -5 -5 -21 -27 -30 -27 -11 0 6
-8 10 -17 10 -15 0 -15 -2 2 -14 23 -15 74 -30 94 -27 7 1 11 -4 9 -11 -7 -19
-50 -23 -60 -4 -5 8 -14 13 -22 10 -7 -3 -19 2 -26 11 -14 16 -35 21 -25 5 3
-5 2 -10 -3 -10 -15 0 -23 43 -10 55 8 7 9 6 3 -4 -6 -11 -4 -13 9 -8 10 4 20
7 22 7 2 0 4 7 4 16 0 11 -6 14 -21 9 -16 -5 -20 -3 -17 6 3 8 15 13 27 12 11
-2 21 2 21 7 0 6 -4 10 -9 10 -5 0 8 17 30 38 54 53 49 60 -10 15 -27 -21 -60
-46 -74 -56 -14 -11 -27 -31 -29 -45 -2 -14 -9 -27 -16 -30 -7 -2 -10 2 -6 12
7 18 -7 21 -23 5 -17 -17 -53 -1 -64 28 -18 48 24 85 91 80 20 -2 26 3 28 23
2 14 9 32 16 40 7 8 23 38 35 65 33 74 151 177 304 266 71 42 111 46 137 14 6
-8 18 -11 26 -8 8 3 22 -1 32 -10 9 -8 28 -20 42 -27 23 -12 24 -12 11 4 -19
22 -112 71 -130 67 -7 -1 -11 1 -8 6 7 12 -11 53 -24 53 -6 0 -8 -7 -5 -17 7
-17 6 -17 -11 0 -15 15 -16 19 -3 27 12 8 12 11 -3 28 -29 32 0 71 31 40 9 -9
12 -9 12 0 0 7 7 12 15 12 8 0 15 -4 15 -9 0 -12 102 -61 125 -61 10 0 -9 14
-41 31 -33 17 -66 37 -75 45 -8 8 -21 14 -28 14 -6 0 -25 7 -41 15 -16 8 -31
11 -34 6 -4 -5 0 -12 6 -14 7 -3 3 -6 -9 -6 -18 -1 -21 -5 -16 -33 4 -27 2
-31 -8 -20 -18 16 -29 15 -29 -4 0 -24 -24 -44 -41 -33 -25 16 -45 11 -23 -6
19 -14 19 -14 -3 -15 -12 0 -24 6 -26 13 -4 8 -14 3 -31 -16 -22 -24 -31 -27
-61 -21 -30 5 -34 4 -29 -10 3 -9 1 -16 -5 -16 -6 0 -11 5 -11 11 0 8 -5 7
-16 -2 -14 -11 -13 -14 8 -26 22 -14 22 -14 -9 -10 -18 2 -35 -1 -38 -7 -2 -6
-2 0 1 13 7 26 -14 26 -26 0 -42 -89 -42 -88 -71 -82 -24 5 -27 3 -22 -16 3
-13 1 -21 -7 -21 -7 0 -9 -8 -5 -19 5 -16 2 -18 -14 -14 -17 4 -22 -2 -33 -42
-13 -48 -34 -68 -48 -45 -6 9 -10 8 -19 -6 -6 -11 -11 -16 -11 -11 0 4 -14 0
-30 -8 -17 -9 -35 -13 -40 -10 -6 3 -11 0 -11 -7 -1 -7 -2 -19 -3 -26 0 -7 -6
-16 -11 -20 -9 -6 -35 -56 -35 -67 0 -3 6 -5 14 -5 17 0 41 -28 32 -37 -4 -4
-10 -3 -14 2 -4 6 -22 11 -41 11 -18 1 -37 7 -41 15 -11 17 -32 -34 -24 -56 4
-10 0 -15 -15 -15 -12 0 -21 -5 -21 -10 0 -7 -15 -9 -37 -6 -21 3 -30 3 -20 0
21 -7 23 -24 2 -24 -8 0 -15 -8 -15 -17 0 -9 -14 -32 -32 -50 -52 -54 -157
-255 -209 -402 -17 -47 -43 -144 -57 -215 -15 -73 -33 -131 -40 -134 -8 -2
-10 2 -5 14 4 12 3 15 -5 10 -7 -4 -12 -2 -12 4 0 6 -5 8 -12 4 -7 -4 -8 -3
-4 5 4 6 11 9 15 6 5 -2 17 2 27 10 16 11 17 16 6 27 -11 11 -15 10 -22 -2 -7
-11 -12 -12 -17 -4 -5 7 -17 14 -28 16 -11 2 -19 11 -19 21 1 9 -2 15 -6 12
-15 -9 -17 19 -3 33 11 11 17 12 29 2 8 -7 17 -10 20 -8 3 3 -7 15 -22 27 -26
21 -35 64 -19 91 11 17 26 0 19 -22 -4 -14 -2 -18 5 -14 6 4 11 16 11 27 0 12
7 19 20 19 11 0 20 -5 20 -12 0 -6 2 -9 5 -6 9 8 -17 58 -26 52 -18 -11 -1 60
18 76 11 8 22 22 24 29 4 11 8 11 20 -2 14 -13 17 -13 27 4 18 28 15 34 -21
32 -20 -1 -23 1 -10 4 13 2 36 17 52 33 19 20 31 26 39 18 7 -7 9 7 5 47 -5
51 -3 57 16 62 24 6 28 23 6 23 -20 0 -32 50 -14 60 11 7 10 12 -4 28 -17 18
-16 21 13 52 16 18 30 36 30 40 0 5 8 15 18 22 34 27 108 112 80 92 -15 -10
-67 -61 -115 -112 -80 -86 -89 -92 -117 -86 -46 8 -66 -20 -122 -169 -46 -121
-49 -127 -65 -110 -16 17 -16 24 -3 91 7 40 18 81 24 92 5 10 10 34 10 53 0
19 6 40 14 46 19 16 27 61 9 54 -12 -5 -17 9 -16 45 1 6 -3 12 -9 12 -5 0 -6
5 -3 11 4 6 13 8 21 5 8 -3 14 -1 14 4 0 6 -13 10 -29 10 -28 0 -47 22 -35 41
3 5 0 9 -5 9 -6 0 -11 -4 -11 -10 0 -17 -29 -11 -47 9 -9 11 -23 17 -32 13
-13 -5 -13 -3 2 12 20 20 22 30 5 20 -29 -16 -47 -37 -41 -47 3 -5 -2 -16 -12
-24 -11 -7 -13 -13 -7 -13 7 0 11 -12 10 -28 -1 -15 2 -34 7 -41 6 -11 4 -13
-9 -8 -10 4 -19 1 -22 -7 -3 -8 -16 -13 -29 -12 -18 1 -21 4 -14 18 5 9 5 19
1 22 -13 8 -102 -192 -102 -228 0 -6 9 8 20 32 10 23 22 42 25 42 13 0 31 -26
27 -38 -2 -6 3 -12 11 -12 21 0 20 -58 -1 -65 -14 -4 -17 -14 -14 -45 2 -23
-1 -47 -8 -55 -10 -12 -10 -18 1 -31 12 -15 11 -16 -7 -10 -17 5 -23 1 -29
-16 -18 -53 -22 -79 -13 -84 5 -3 4 -12 -3 -20 -9 -11 -8 -14 5 -14 10 0 14
-5 11 -10 -4 -6 -10 -8 -15 -5 -5 3 -11 1 -14 -4 -3 -5 1 -11 9 -15 8 -3 15
-17 15 -31 0 -14 3 -25 8 -25 4 0 7 -22 7 -49 0 -38 -3 -47 -14 -43 -9 4 -12
1 -7 -7 5 -7 0 -21 -10 -32 -16 -18 -16 -20 -1 -37 21 -23 22 -46 2 -62 -8 -7
-15 -18 -15 -24 0 -6 5 -4 10 4 8 13 10 12 10 -2 0 -10 3 -18 6 -18 4 0 13 8
21 18 9 10 12 11 7 2 -4 -8 -14 -23 -22 -33 -13 -15 -13 -17 -1 -12 20 7 38
-26 32 -58 -5 -26 -23 -38 -23 -16 0 8 -5 7 -16 -2 -14 -12 -14 -14 3 -20 10
-4 12 -8 6 -8 -19 -1 -16 -31 3 -31 9 0 12 -5 8 -12 -5 -7 0 -9 14 -6 12 4 26
0 33 -8 8 -10 8 -14 0 -14 -6 0 -11 -6 -11 -14 0 -19 40 -28 47 -10 5 14 64
20 62 7 -3 -18 2 -33 10 -33 5 0 7 8 4 19 -3 14 2 20 24 24 15 3 35 1 43 -3
12 -6 16 -3 17 12 1 12 -6 22 -18 25 -10 3 -19 10 -19 16 0 6 3 8 6 4 3 -3 16
-2 29 3 14 5 26 5 32 -1 7 -7 12 -3 16 11 4 16 2 20 -8 16 -20 -7 -26 6 -10
21 10 10 14 10 17 1 3 -7 20 -11 42 -10 21 2 45 -3 52 -9 11 -9 10 -3 -3 18
-9 17 -22 29 -28 27 -6 -3 -19 3 -30 11 -19 15 -19 16 4 4 21 -10 26 -9 37 7
7 11 18 24 24 31 15 18 12 30 -11 47 -12 8 -18 19 -14 26 5 8 13 6 28 -7 19
-17 20 -17 14 0 -4 11 -1 17 9 17 12 0 15 -6 10 -22 -4 -13 -9 -54 -12 -93 -5
-58 -2 -80 17 -130 31 -80 32 -108 4 -102 -18 3 -21 -1 -19 -21 1 -13 7 -29
12 -34 12 -12 35 -1 27 12 -3 5 -1 11 4 14 5 3 14 -7 19 -23 8 -23 7 -32 -6
-46 -16 -16 -15 -17 8 -13 24 4 25 2 22 -29 -2 -18 0 -33 6 -33 14 0 8 -33 -6
-38 -7 -2 -12 -10 -12 -18 0 -9 -4 -13 -8 -10 -10 6 -9 -25 2 -42 4 -6 3 -12
-3 -12 -6 0 -17 12 -24 26 -10 19 -16 23 -22 15 -4 -7 -2 -18 4 -24 6 -6 11
-20 12 -31 0 -12 3 -15 6 -8 8 20 25 13 18 -8 -4 -12 -2 -20 5 -20 7 0 10 -8
7 -20 -4 -14 4 -25 32 -42 20 -12 39 -21 43 -20 4 1 2 -12 -4 -29 -5 -16 -8
-38 -5 -49 3 -11 2 -18 -2 -15 -5 2 -8 -9 -9 -26 0 -23 9 -39 41 -70 23 -21
48 -39 54 -39 7 0 13 -4 13 -10 0 -5 11 -10 24 -10 13 0 27 -6 29 -12 4 -10 7
-10 14 -1 9 13 90 0 108 -18 5 -5 17 -9 27 -9 10 0 18 -4 18 -10 0 -16 -53
-11 -80 7 -24 16 -24 16 -11 0 12 -15 10 -17 -20 -19 -19 0 -46 0 -61 1 -14 1
-29 -2 -32 -7 -3 -5 18 -10 47 -11 29 -1 113 -6 187 -10 74 -4 143 -4 152 0 9
5 24 9 34 9 9 0 31 13 50 29 21 19 48 31 76 35 89 11 138 13 138 7 0 -4 -29
-21 -65 -39 -68 -34 -72 -37 -52 -63 20 -27 52 -31 71 -10 19 21 9 35 -14 20
-20 -12 -30 -11 -30 1 0 6 7 10 15 10 9 0 18 7 21 15 4 8 10 13 14 10 4 -3 13
2 20 10 17 20 32 19 28 -2 -2 -14 4 -18 30 -17 36 2 38 -2 17 -30 -9 -12 -15
-15 -15 -7 0 11 -3 11 -14 2 -11 -10 -17 -8 -25 6 -9 16 -12 16 -21 3 -14 -22
-12 -33 5 -26 19 7 19 -14 1 -39 -12 -16 -16 -17 -29 -6 -9 7 -22 9 -28 5 -9
-5 -5 -10 12 -17 14 -5 19 -11 11 -14 -6 -3 -9 -9 -6 -14 3 -6 1 -16 -5 -23
-9 -10 -5 -13 19 -12 18 1 32 7 35 17 5 16 72 45 82 35 4 -3 -1 -6 -10 -6 -10
0 -17 -7 -17 -15 0 -8 5 -15 10 -15 6 0 10 5 10 10 0 6 10 10 23 10 20 -1 20
-2 5 -13 -15 -12 -13 -14 13 -26 29 -12 29 -14 15 -37 -9 -12 -13 -31 -9 -40
5 -12 3 -15 -6 -9 -8 4 -11 20 -9 37 4 27 2 29 -19 25 -12 -2 -23 -1 -23 4 0
19 -35 27 -55 12 -20 -15 -20 -15 0 -9 19 5 55 -8 45 -17 -15 -12 -93 -36
-101 -32 -5 4 -9 -1 -9 -9 0 -9 -11 -18 -24 -22 -34 -8 -22 -34 15 -34 28 0
29 -2 18 -22 -11 -21 -11 -22 4 -9 15 12 21 9 19 -11 -1 -3 5 -9 14 -12 8 -3
12 -2 9 3 -13 22 16 19 36 -3 l22 -25 29 20 c28 20 30 20 49 3 18 -16 19 -16
13 -1 -7 19 3 22 26 7 8 -5 11 -12 8 -16 -9 -8 16 -34 32 -34 7 0 10 -7 6 -15
-3 -8 -1 -15 4 -15 5 0 16 -7 24 -16 9 -8 16 -11 16 -6 0 5 -7 15 -15 22 -8 7
-12 17 -9 22 4 6 0 14 -7 19 -12 8 -12 11 1 18 8 6 17 7 20 3 3 -4 26 -8 53
-9 35 -1 47 2 47 13 0 8 -7 14 -14 14 -12 0 -13 6 -5 30 12 33 24 38 33 15 3
-8 13 -15 22 -15 11 0 14 -5 10 -17 -5 -15 -3 -14 11 2 23 27 46 21 59 -14 11
-26 10 -27 -15 -23 l-26 5 25 -20 c22 -19 56 -21 45 -3 -2 4 7 17 22 30 20 18
23 24 12 31 -11 7 -9 9 7 9 12 0 27 -7 34 -16 8 -8 23 -20 34 -25 16 -8 15 -6
-4 10 -21 18 -23 22 -10 31 10 6 16 6 18 0 2 -6 8 -8 13 -5 5 4 6 -2 2 -11 -5
-14 -2 -16 21 -10 18 4 25 3 21 -4 -3 -5 -2 -10 4 -10 5 0 14 8 20 17 5 10 13
14 18 10 4 -5 0 -14 -10 -21 -9 -7 -17 -18 -17 -25 0 -17 -18 -13 -29 7 -10
16 -10 15 -11 -3 0 -11 -8 -29 -16 -40 -16 -19 -16 -19 -9 5 7 23 7 23 -9 7
-10 -9 -26 -22 -36 -27 -11 -6 -17 -17 -14 -24 4 -9 -6 -21 -25 -30 -27 -14
-30 -14 -25 -1 4 8 2 15 -4 15 -5 0 -12 -9 -15 -20 -3 -11 -1 -20 3 -20 4 0 8
-16 7 -35 -1 -45 -25 -54 -54 -21 -12 14 -24 26 -26 26 -10 0 3 -66 16 -75 11
-8 12 -15 3 -30 -15 -27 -27 -35 -53 -35 -16 0 -21 -4 -17 -15 4 -8 2 -15 -4
-15 -6 0 -13 6 -15 13 -4 7 -6 6 -6 -4 -1 -12 -14 -19 -45 -23 -36 -6 -44 -10
-39 -23 4 -11 2 -14 -5 -9 -7 4 -12 16 -12 26 0 21 -29 34 -54 24 -9 -3 -16
-12 -16 -20 0 -17 -2 -17 -33 -3 -21 9 -28 8 -47 -11 -13 -13 -29 -20 -41 -17
-10 3 -19 2 -19 -2 0 -4 -13 -8 -30 -8 -23 0 -30 5 -30 20 0 15 -5 18 -24 13
-14 -3 -28 -1 -31 4 -5 8 -12 7 -22 -2 -21 -17 -74 -19 -93 -3 -8 7 -27 15
-41 19 -21 5 -30 1 -43 -18 -15 -24 -15 -25 27 -40 23 -9 60 -18 82 -21 22 -3
63 -9 90 -13 80 -12 253 -5 335 14 41 10 118 20 170 24 98 7 150 22 184 53 11
9 24 17 30 17 5 0 43 16 83 36 60 29 77 33 88 24 19 -16 19 -45 -1 -64 -14
-14 -14 -16 0 -16 8 0 19 6 23 13 4 6 21 19 38 27 16 9 30 23 30 32 0 10 9 24
20 32 23 17 60 21 50 6 -10 -17 48 0 62 17 6 8 10 20 9 26 -2 7 -1 8 2 4 2 -5
11 -2 21 7 21 19 32 21 42 4 6 -9 9 -7 9 8 0 24 24 49 38 40 6 -3 15 1 22 10
7 8 19 13 27 10 8 -3 12 -2 8 3 -7 13 55 60 72 54 9 -4 11 0 7 12 -6 14 -3 16
12 11 14 -4 24 2 39 24 20 30 60 54 75 45 4 -3 13 2 20 10 7 8 9 15 4 15 -10
1 27 24 38 25 4 0 16 9 27 20 52 51 60 57 70 50 7 -4 8 0 4 11 -5 14 -2 16 17
11 16 -4 29 0 39 11 9 9 34 26 55 37 66 34 96 68 96 111 l0 37 -22 -20 c-49
-43 -236 -181 -278 -204 -25 -13 -60 -36 -79 -52 -18 -16 -39 -26 -47 -23 -8
3 -14 0 -14 -7 0 -12 -67 -57 -84 -57 -14 0 -4 18 17 29 16 9 17 10 2 5 -11
-4 -31 -9 -45 -12 -14 -2 -32 -11 -42 -19 -9 -8 -22 -13 -30 -12 -7 2 -23 -2
-36 -9 -19 -11 -25 -10 -37 2 -21 20 -19 29 4 17 24 -13 54 15 32 28 -9 6 -6
10 9 14 18 5 21 2 17 -14 -5 -18 -4 -19 25 -2 21 13 25 19 14 21 -19 4 -20 16
-6 42 6 11 17 17 25 14 8 -4 17 1 21 10 3 8 22 26 42 38 50 30 75 55 64 62 -5
3 -53 -29 -108 -71 -152 -115 -445 -307 -547 -357 -95 -45 -171 -65 -182 -45
-10 14 21 46 53 54 14 3 32 15 40 26 13 19 82 59 102 59 5 0 28 13 50 29 21
15 54 34 72 42 18 7 35 15 38 18 3 3 26 17 52 30 26 12 70 43 99 67 28 25 66
52 83 61 17 9 54 32 81 52 51 37 164 108 236 148 51 28 114 83 96 83 -8 0 -20
-7 -27 -15 -7 -8 -18 -15 -24 -15 -6 0 -17 -9 -24 -21 -10 -15 -21 -20 -45
-17 -25 2 -31 -1 -29 -13 1 -9 -14 -27 -37 -42 -35 -24 -39 -24 -55 -9 -15 15
-16 15 -16 -1 0 -9 -4 -17 -10 -17 -5 0 -10 -7 -10 -15 0 -8 -6 -16 -12 -16
-7 -1 -17 -2 -23 -4 -5 -1 -18 -3 -27 -3 -11 -1 -18 -10 -18 -21 0 -21 -38
-54 -52 -45 -4 3 -6 9 -4 13 3 4 -4 14 -15 21 -10 8 -19 20 -19 27 0 20 17 15
23 -7 6 -23 27 -27 27 -5 0 9 6 12 17 8 10 -4 14 -2 10 4 -4 6 8 20 26 32 22
14 26 21 15 21 -20 0 -25 20 -5 20 7 1 5 6 -5 14 -22 16 -23 26 -4 26 18 0 29
31 20 55 -6 15 -3 17 15 12 18 -4 21 -2 17 10 -5 12 -1 14 19 11 23 -5 36 6
17 14 -5 2 -12 16 -16 31 -4 18 -3 26 3 23 5 -4 14 1 19 9 8 15 10 15 23 -1
13 -16 12 -17 -6 -10 -15 5 -17 4 -8 -5 6 -6 19 -9 27 -6 18 7 22 27 5 27 -8
0 -8 4 -1 13 9 10 27 42 76 132 6 11 19 26 29 33 9 7 17 21 17 31 0 22 38 73
50 66 4 -3 6 -14 3 -25 -3 -11 0 -20 6 -20 6 0 11 7 11 15 0 12 7 14 28 9 15
-4 32 -12 37 -19 6 -6 15 -10 21 -8 6 2 17 -3 24 -12 7 -9 8 -15 2 -15 -16 0
-8 -31 11 -41 11 -7 26 -5 46 6 37 18 36 18 55 0 22 -22 68 0 60 29 -12 49
-10 94 3 89 16 -6 18 43 2 53 -6 3 -9 19 -5 35 3 16 1 29 -4 29 -6 0 -10 5
-10 11 0 6 7 9 15 6 12 -5 14 25 14 213 0 129 -4 220 -10 220 -5 0 -9 5 -9 11
0 5 4 8 8 5 4 -3 9 11 9 30 1 19 -3 34 -8 34 -5 0 -9 -6 -9 -12 0 -7 -9 -2
-20 12 -21 27 -19 40 4 21 12 -10 17 -9 25 7 15 28 9 65 -14 85 -20 18 -20 18
3 12 13 -4 22 -2 22 4 0 6 -5 11 -11 11 -8 0 -8 4 1 15 17 20 5 48 -30 68 -29
17 -29 17 -23 0 5 -14 3 -16 -7 -6 -11 10 -11 15 0 27 7 9 17 13 23 9 17 -10
47 -11 47 -2 0 5 -11 11 -25 15 -16 4 -25 13 -25 25 0 21 -16 26 -23 7 -4 -10
-8 -10 -15 0 -5 8 -18 12 -28 10 -16 -3 -14 -6 10 -18 30 -16 36 -32 15 -39
-8 -2 -9 1 -4 10 5 8 -1 5 -13 -5 -12 -11 -22 -25 -22 -33 0 -7 -4 -13 -10
-13 -5 0 -10 -7 -10 -15 0 -8 -4 -15 -9 -15 -5 0 -7 -9 -4 -20 4 -14 0 -20
-11 -20 -10 0 -13 5 -9 17 7 18 -7 13 -39 -15 -10 -8 -18 -10 -18 -4 0 5 22
26 49 45 54 39 68 65 52 96 -17 32 -9 147 9 136 4 -3 11 2 14 11 4 10 2 13 -6
8 -8 -5 -9 -2 -4 12 5 10 9 25 9 32 0 15 3 15 30 1 l22 -12 -20 24 -20 23 27
-17 c16 -10 29 -13 33 -7 3 6 2 10 -3 10 -6 0 -8 9 -5 19 3 13 -1 21 -14 24
-11 3 -7 5 12 6 l30 1 -25 21 c-24 20 -24 20 -2 14 13 -4 27 -1 35 7 15 15 20
58 6 58 -5 0 -9 9 -9 20 0 11 4 20 8 20 12 0 13 101 1 117 -9 11 -15 11 -28 1
-14 -12 -14 -11 -2 5 19 24 0 67 -29 67 -21 0 -27 15 -10 25 6 3 10 15 10 27
0 14 5 18 16 14 17 -7 54 10 54 24 0 6 -7 10 -16 10 -8 0 -13 4 -10 9 4 5 2
20 -3 33 -9 22 -10 21 -10 -8 -1 -39 -31 -57 -31 -19 0 14 5 25 10 25 6 0 8
10 5 23 -4 15 -1 28 9 36 9 8 16 20 16 27 0 8 5 14 11 14 7 0 9 -10 5 -24 -3
-14 -2 -28 4 -31 6 -4 10 6 10 24 0 19 -7 34 -19 40 -10 6 -28 27 -40 47 -22
38 -23 56 -2 30 7 -8 18 -14 24 -12 7 1 9 1 5 -1 -20 -11 1 -43 27 -43 2 0 4
105 5 233 l0 232 -37 37 c-21 19 -76 68 -123 107 l-85 71 -98 0 c-76 0 -96 -3
-91 -12z m-1076 -378 c0 -5 -10 -10 -22 -10 -19 0 -20 2 -8 10 19 13 30 13 30
0z m-140 -60 c0 -5 -5 -10 -11 -10 -5 0 -7 5 -4 10 3 6 8 10 11 10 2 0 4 -4 4
-10z m1395 -20 c3 -5 -1 -10 -9 -10 -9 0 -16 5 -16 10 0 6 4 10 9 10 6 0 13
-4 16 -10z m120 -26 c13 -14 14 -19 3 -25 -19 -12 -38 -11 -38 2 0 6 7 9 15 5
18 -7 20 5 3 22 -7 7 -9 12 -6 12 4 0 14 -7 23 -16z m32 -53 c1 -15 -5 -18
-34 -17 -21 0 -38 7 -41 14 -3 11 0 12 17 3 17 -10 22 -9 27 4 8 21 29 19 31
-4z m53 -12 c0 -6 -4 -7 -10 -4 -5 3 -10 11 -10 16 0 6 5 7 10 4 6 -3 10 -11
10 -16z m-215 -29 c3 -5 1 -10 -4 -10 -6 0 -11 5 -11 10 0 6 2 10 4 10 3 0 8
-4 11 -10z m125 -26 c0 -11 -4 -12 -19 -2 -10 6 -17 18 -14 25 7 17 33 -2 33
-23z m95 16 c3 -5 1 -10 -4 -10 -6 0 -11 5 -11 10 0 6 2 10 4 10 3 0 8 -4 11
-10z m-1 -116 c8 -20 8 -29 -1 -21 -3 4 -12 2 -20 -4 -9 -8 -13 -8 -13 -1 0 6
5 14 10 17 6 4 8 11 5 16 -4 5 -2 9 3 9 6 0 13 -7 16 -16z m-984 -114 c0 -5
-5 -10 -11 -10 -5 0 -7 5 -4 10 3 6 8 10 11 10 2 0 4 -4 4 -10z m-953 -36 c-9
-9 -28 6 -21 18 4 6 10 6 17 -1 6 -6 8 -13 4 -17z m1863 12 c0 -3 -4 -8 -10
-11 -5 -3 -10 -1 -10 4 0 6 5 11 10 11 6 0 10 -2 10 -4z m-985 -166 c-3 -6
-13 -10 -21 -10 -14 0 -14 6 -5 60 1 2 8 -6 17 -18 8 -12 12 -27 9 -32z
m-1975 -15 c0 -8 -4 -15 -10 -15 -5 0 -7 7 -4 15 4 8 8 15 10 15 2 0 4 -7 4
-15z m1550 5 c0 -5 -7 -7 -15 -4 -8 4 -15 8 -15 10 0 2 7 4 15 4 8 0 15 -4 15
-10z m-305 -10 c4 -6 15 -8 24 -5 11 3 25 -3 36 -15 18 -20 18 -21 1 -38 -17
-16 -18 -16 -11 7 5 18 4 22 -6 16 -9 -6 -11 -3 -6 8 3 10 2 17 -2 17 -5 0
-11 -6 -14 -12 -3 -9 -12 -6 -28 10 -13 12 -18 22 -12 22 7 0 15 -5 18 -10z
m761 1 c-4 -5 0 -11 6 -14 7 -2 1 -4 -14 -4 -31 -1 -38 13 -10 20 9 3 18 5 20
6 2 0 1 -3 -2 -8z m-858 -51 c-7 -11 -16 -20 -20 -20 -5 0 -3 9 4 20 7 11 16
20 20 20 5 0 3 -9 -4 -20z m92 10 c0 -5 -5 -10 -11 -10 -5 0 -7 5 -4 10 3 6 8
10 11 10 2 0 4 -4 4 -10z m160 -34 c-7 -9 -17 -13 -22 -10 -5 3 -18 -2 -29
-12 -18 -17 -19 -16 -17 10 2 20 10 29 33 35 36 10 53 -2 35 -23z m-145 4 c3
-5 1 -10 -4 -10 -6 0 -11 5 -11 10 0 6 2 10 4 10 3 0 8 -4 11 -10z m-765 -40
c0 -5 -2 -10 -4 -10 -3 0 -8 5 -11 10 -3 6 -1 10 4 10 6 0 11 -4 11 -10z m750
6 c0 -2 -7 -7 -16 -10 -8 -3 -12 -2 -9 4 6 10 25 14 25 6z m290 -17 c0 -6 -4
-7 -10 -4 -5 3 -10 11 -10 16 0 6 5 7 10 4 6 -3 10 -11 10 -16z m-800 -24 c0
-14 -5 -25 -11 -25 -13 0 -2 -39 18 -62 8 -9 16 -22 17 -30 10 -50 20 -69 32
-64 25 10 15 -22 -15 -47 -17 -14 -28 -27 -26 -29 2 -2 -11 -22 -30 -43 -29
-33 -37 -37 -45 -25 -7 11 -9 7 -7 -18 2 -17 7 -35 11 -39 7 -7 -62 -83 -76
-83 -18 0 -6 30 23 54 17 14 26 26 20 26 -6 0 -11 20 -11 45 0 25 -4 45 -9 45
-4 0 -21 -18 -36 -40 -15 -22 -30 -38 -32 -36 -5 5 11 62 27 101 4 11 24 59
44 108 20 48 48 104 61 124 14 19 25 42 25 49 0 8 5 14 10 14 6 0 10 -11 10
-25z m366 10 c-8 -8 -17 -15 -20 -15 -3 0 -6 7 -6 15 0 9 9 15 21 15 18 0 19
-2 5 -15z m214 -25 c0 -5 -2 -10 -4 -10 -3 0 -8 5 -11 10 -3 6 -1 10 4 10 6 0
11 -4 11 -10z m-250 -4 c0 -3 -4 -8 -10 -11 -5 -3 -10 -1 -10 4 0 6 5 11 10
11 6 0 10 -2 10 -4z m-40 -37 c0 -6 -4 -7 -10 -4 -5 3 -10 11 -10 16 0 6 5 7
10 4 6 -3 10 -11 10 -16z m-30 5 c0 -4 -42 -50 -93 -103 -52 -53 -117 -122
-147 -154 -29 -31 -56 -55 -59 -52 -3 4 -1 9 5 13 6 4 25 29 43 55 18 27 47
64 63 83 22 25 28 39 23 56 -5 18 -4 20 4 8 10 -13 16 -10 43 20 51 55 118 97
118 74z m-519 -27 c-10 -9 -11 -8 -5 6 3 10 9 15 12 12 3 -3 0 -11 -7 -18z
m279 19 c0 -3 -4 -8 -10 -11 -5 -3 -10 -1 -10 4 0 6 5 11 10 11 6 0 10 -2 10
-4z m490 -20 c0 -3 -4 -8 -10 -11 -5 -3 -10 -1 -10 4 0 6 5 11 10 11 6 0 10
-2 10 -4z m141 -93 c-18 -50 -60 -88 -110 -99 -14 -4 -43 -20 -64 -36 -21 -17
-41 -27 -45 -24 -8 9 163 173 188 181 11 3 20 11 20 16 0 5 6 9 14 9 12 0 11
-8 -3 -47z m249 -33 c0 -5 -2 -10 -4 -10 -3 0 -8 5 -11 10 -3 6 -1 10 4 10 6
0 11 -4 11 -10z m-857 -125 c-3 -9 -8 -14 -10 -11 -3 3 -2 9 2 15 9 16 15 13
8 -4z m287 -60 c8 -10 20 -13 34 -9 24 8 31 18 -96 -149 -104 -136 -208 -230
-208 -187 0 5 21 43 47 85 41 67 45 78 35 101 -18 38 -15 51 18 80 45 41 123
92 141 93 9 1 22 -6 29 -14z m-780 -25 c0 -5 -4 -10 -10 -10 -5 0 -10 5 -10
10 0 6 5 10 10 10 6 0 10 -4 10 -10z m1360 -30 c-12 -16 -25 -32 -30 -35 -6
-4 -10 -24 -10 -45 0 -30 -4 -40 -21 -45 -11 -4 -22 -5 -24 -3 -5 5 58 132 75
153 22 27 31 4 10 -25z m1340 16 c0 -3 -4 -8 -10 -11 -5 -3 -10 -1 -10 4 0 6
5 11 10 11 6 0 10 -2 10 -4z m-2 -42 c6 3 5 -4 -1 -19 -7 -14 -18 -25 -26 -25
-11 0 -11 3 0 17 11 13 11 17 1 20 -6 3 -9 9 -6 15 4 7 9 6 14 -2 4 -7 12 -10
18 -6z m92 7 c0 -5 -14 -20 -32 -32 -17 -13 -26 -25 -20 -27 7 -2 12 -8 12
-14 0 -6 -9 -3 -19 7 -20 17 -19 18 12 46 32 30 47 36 47 20z m-1432 -30 c-7
-12 -16 -21 -21 -21 -4 0 0 11 10 24 22 29 30 27 11 -3z m1183 -12 c8 -15 8
-24 0 -32 -13 -13 -16 -10 -25 26 -8 32 8 36 25 6z m-2546 1 c3 -5 -1 -10 -9
-10 -9 0 -16 5 -16 10 0 6 4 10 9 10 6 0 13 -4 16 -10z m2607 -45 c-2 -14 -8
-22 -13 -19 -13 8 -11 32 4 37 6 3 13 6 13 6 1 1 -1 -10 -4 -24z m-2612 -15
c0 -5 -2 -10 -4 -10 -3 0 -8 5 -11 10 -3 6 -1 10 4 10 6 0 11 -4 11 -10z m759
-4 c10 -12 8 -17 -8 -26 -12 -6 -21 -8 -21 -4 0 3 -7 1 -15 -6 -20 -16 -19 0
1 28 18 26 27 27 43 8z m1486 4 c-3 -5 -14 -10 -23 -10 -15 0 -15 2 -2 10 20
13 33 13 25 0z m-2220 -58 c-6 -7 -45 19 -45 29 0 5 11 2 24 -8 13 -10 23 -19
21 -21z m2194 4 c-3 -3 -11 5 -18 17 -13 21 -12 21 5 5 10 -10 16 -20 13 -22z
m516 -16 c3 -5 1 -10 -4 -10 -6 0 -11 5 -11 10 0 6 2 10 4 10 3 0 8 -4 11 -10z
m-2685 -34 c0 -2 -7 -6 -15 -10 -8 -3 -15 -1 -15 4 0 6 7 10 15 10 8 0 15 -2
15 -4z m-25 -36 c3 -5 2 -10 -4 -10 -5 0 -13 5 -16 10 -3 6 -2 10 4 10 5 0 13
-4 16 -10z m2745 6 c0 -3 -4 -8 -10 -11 -5 -3 -10 -1 -10 4 0 6 5 11 10 11 6
0 10 -2 10 -4z m15 -35 c3 -5 1 -12 -5 -16 -5 -3 -10 1 -10 9 0 18 6 21 15 7z
m-355 -105 c0 -3 -4 -8 -10 -11 -5 -3 -10 -1 -10 4 0 6 5 11 10 11 6 0 10 -2
10 -4z m-2165 -26 c3 -5 1 -10 -4 -10 -6 0 -11 5 -11 10 0 6 2 10 4 10 3 0 8
-4 11 -10z m0 -101 c6 -34 3 -44 -16 -65 -12 -13 -26 -24 -31 -24 -14 0 -9 85
8 108 22 32 31 27 39 -19z m-85 1 c0 -4 3 -17 7 -27 4 -12 -2 -9 -20 10 -32
34 -36 52 -7 37 11 -6 20 -15 20 -20z m2200 -22 c-6 -29 -39 -117 -75 -203 -7
-16 -18 -45 -25 -62 -14 -36 -20 -39 -39 -20 -7 6 -12 8 -11 2 5 -21 -1 -27
-14 -16 -12 10 -14 5 -13 -25 1 -28 -4 -41 -21 -52 -13 -9 -22 -25 -22 -40 0
-28 -45 -76 -62 -66 -4 3 -7 2 -6 -3 1 -4 -3 -17 -9 -28 -6 -11 -12 -24 -14
-30 -1 -5 -10 -9 -21 -7 -19 3 -25 -13 -8 -23 6 -4 5 -11 -3 -19 -6 -8 -15
-12 -19 -10 -9 6 -48 -32 -48 -46 0 -5 -4 -10 -10 -10 -5 0 -10 -7 -10 -15 0
-8 -4 -15 -10 -15 -5 0 -10 5 -10 10 0 18 -20 11 -21 -7 0 -17 -1 -17 -8 0 -6
17 -8 17 -25 -2 -10 -11 -22 -19 -26 -16 -4 2 -16 -2 -26 -10 -17 -13 -18 -14
-1 -15 9 0 17 -3 17 -8 0 -12 -40 -33 -50 -27 -6 3 -7 -1 -4 -8 3 -8 14 -17
25 -20 20 -5 27 -27 8 -27 -5 0 -7 5 -4 10 3 6 2 10 -4 10 -5 0 -16 3 -25 6
-11 4 -16 1 -16 -10 0 -26 -17 -18 -25 11 -5 20 -9 23 -15 13 -4 -7 -6 -19 -4
-25 7 -17 -25 -28 -41 -15 -9 8 -15 8 -20 0 -9 -14 -75 -6 -86 11 -5 8 -9 21
-9 29 0 12 2 12 9 2 6 -10 12 -7 24 12 10 15 13 27 7 31 -20 12 -9 27 16 22
22 -4 25 -1 22 21 -2 14 3 27 10 30 9 3 11 -3 6 -22 -4 -16 -2 -26 5 -26 6 0
11 7 11 16 0 8 5 12 11 8 8 -4 9 1 4 16 -6 19 -4 21 14 15 16 -5 20 -3 15 9
-3 9 -1 16 5 16 6 0 11 -7 11 -15 0 -18 5 -18 31 -5 23 13 25 30 4 30 -8 0
-15 4 -15 10 0 5 -5 9 -11 7 -6 -1 -14 4 -16 11 -3 8 1 10 11 6 10 -4 16 -1
16 7 0 15 52 -36 64 -61 3 -8 4 -5 2 8 -3 17 2 26 21 35 20 9 27 9 30 1 3 -8
17 -6 43 7 21 11 45 19 52 19 7 0 -3 14 -22 30 -19 17 -27 27 -17 24 13 -5 16
-2 11 11 -7 16 -6 16 20 0 33 -22 44 -13 22 19 -9 14 -16 28 -16 31 0 8 62 3
83 -7 30 -15 19 10 -13 29 -16 9 -30 20 -29 23 3 24 19 44 38 45 16 1 20 -2
16 -14 -5 -13 -4 -14 6 -3 7 6 21 12 31 12 15 0 16 3 6 26 -10 21 -9 27 3 35
20 13 29 11 35 -6 4 -8 17 -15 31 -15 14 0 22 4 18 10 -4 6 -11 7 -17 4 -8 -5
-9 -1 -5 10 4 10 7 22 7 27 0 6 5 7 10 4 6 -3 10 -1 10 5 0 6 14 24 30 39 28
25 30 33 28 77 -2 38 0 49 12 49 8 0 21 20 30 47 10 33 20 48 33 48 9 0 17 7
17 16 0 8 4 13 9 9 5 -3 12 -1 16 5 11 18 13 11 5 -22z m261 -21 c-7 -7 -14
-8 -21 -1 -6 6 -2 10 12 11 16 2 18 -1 9 -10z m84 -5 c-3 -3 -11 0 -18 7 -9
10 -8 11 6 5 10 -3 15 -9 12 -12z m-2403 -27 c-5 -29 -8 -30 -28 -11 -21 22
-17 26 27 35 3 0 4 -10 1 -24z m2365 -57 c-9 -16 -9 -22 1 -25 6 -3 10 -9 7
-13 -3 -5 -1 -11 5 -15 5 -3 10 2 10 12 0 15 2 16 10 3 5 -8 10 -25 10 -37 0
-17 -4 -21 -17 -17 -10 3 -6 -2 10 -11 32 -19 34 -31 6 -61 -23 -24 -41 -89
-33 -116 7 -24 -18 -23 -39 0 -13 15 -14 21 -4 31 9 10 8 11 -6 5 -15 -6 -18
-3 -15 16 3 27 28 40 28 16 0 -9 5 -16 11 -16 6 0 9 6 6 14 -3 7 -2 17 3 22 5
5 12 26 15 47 7 37 7 37 -25 35 -33 -2 -47 -18 -35 -38 5 -8 12 -5 22 7 13 16
14 16 9 1 -3 -10 -1 -20 4 -23 5 -3 7 -12 3 -21 -4 -11 -8 -12 -20 -2 -12 9
-19 6 -38 -18 -28 -34 -31 -28 -11 21 9 21 11 37 5 40 -5 4 -7 10 -4 15 3 4
-4 6 -16 3 -18 -5 -20 -2 -17 27 2 19 9 36 17 38 8 3 11 0 8 -6 -4 -5 2 -12
13 -15 27 -7 25 7 -2 25 -20 13 -21 17 -9 32 8 9 19 16 25 15 33 -4 48 2 42
17 -9 23 3 37 19 24 11 -9 12 -16 2 -32z m-2477 2 c0 -5 -2 -10 -4 -10 -3 0
-8 5 -11 10 -3 6 -1 10 4 10 6 0 11 -4 11 -10z m2545 -30 c3 -5 1 -10 -4 -10
-6 0 -11 5 -11 10 0 6 2 10 4 10 3 0 8 -4 11 -10z m-511 -52 c-4 -7 -9 -6 -14
1 -3 7 -14 9 -23 5 -10 -3 -17 -1 -17 6 0 6 4 9 9 5 5 -3 13 -1 16 5 5 8 11 7
21 -1 7 -6 11 -16 8 -21z m-24 -28 c0 -5 -4 -10 -10 -10 -5 0 -10 5 -10 10 0
6 5 10 10 10 6 0 10 -4 10 -10z m-1528 -40 c18 -11 44 -20 58 -21 24 0 24 -1
4 -11 -29 -14 -45 -49 -32 -72 6 -12 6 -22 -2 -32 -17 -19 -35 -18 -46 5 -5
11 -33 38 -61 60 -29 23 -53 48 -53 56 0 37 81 46 132 15z m-162 -32 c0 -15
-87 -54 -97 -44 -8 7 -7 9 37 35 40 24 60 27 60 9z m530 2 c0 -5 -9 -10 -20
-10 -11 0 -20 5 -20 10 0 6 9 10 20 10 11 0 20 -4 20 -10z m1505 0 c3 -5 1
-10 -4 -10 -6 0 -11 5 -11 10 0 6 2 10 4 10 3 0 8 -4 11 -10z m-1755 -52 c0
-11 -43 7 -48 20 -2 7 5 7 22 -1 14 -7 26 -15 26 -19z m-290 2 c0 -5 -5 -10
-12 -10 -6 0 -3 -7 8 -15 18 -14 17 -14 -8 -4 -22 10 -25 15 -17 26 13 15 29
17 29 3z m103 -28 c-2 -7 4 -12 13 -12 9 0 14 -6 11 -12 -2 -7 -1 -20 4 -29 6
-12 0 -22 -21 -37 -16 -12 -33 -22 -37 -22 -4 0 0 6 9 13 15 12 15 14 -3 25
-11 7 -19 8 -19 2 0 -5 -4 -10 -10 -10 -5 0 -10 6 -10 14 0 8 -6 17 -12 20 -7
3 -3 3 10 0 27 -7 28 1 2 28 -27 29 -11 48 33 38 17 -4 31 -12 30 -18z m2145
-3 c12 -18 11 -24 -2 -37 -14 -14 -16 -14 -22 1 -3 9 -12 17 -20 17 -8 0 -14
6 -14 14 0 12 9 18 40 25 3 0 11 -9 18 -20z m-883 -49 c3 -5 1 -10 -4 -10 -6
0 -11 5 -11 10 0 6 2 10 4 10 3 0 8 -4 11 -10z m-1135 -10 c0 -5 -5 -10 -11
-10 -5 0 -7 5 -4 10 3 6 8 10 11 10 2 0 4 -4 4 -10z m35 -30 c3 -5 14 -10 25
-10 13 0 17 -5 13 -20 -3 -11 -9 -18 -13 -15 -5 3 -11 -1 -13 -7 -4 -11 -7
-11 -14 0 -5 6 -33 18 -61 24 -62 15 -68 27 -12 24 22 0 40 2 40 7 0 11 28 9
35 -3z m1132 -32 c-3 -8 -6 -5 -6 6 -1 11 2 17 5 13 3 -3 4 -12 1 -19z m-1637
2 c0 -5 -4 -10 -9 -10 -6 0 -13 5 -16 10 -3 6 1 10 9 10 9 0 16 -4 16 -10z
m647 4 c13 -4 20 -10 17 -16 -3 -5 -14 -6 -25 -3 -12 4 -19 2 -19 -6 0 -10 -3
-10 -11 -2 -6 6 -8 16 -5 22 8 13 12 13 43 5z m-213 -13 c3 -5 -1 -11 -9 -15
-8 -3 -15 -12 -15 -21 0 -8 -4 -15 -10 -15 -14 0 -13 16 2 40 14 22 24 25 32
11z m262 -27 c-2 -14 -8 -29 -15 -34 -14 -8 -75 10 -93 28 -15 15 0 16 35 3
19 -7 28 -5 40 10 23 26 36 24 33 -7z m-216 2 c0 -11 -19 -15 -25 -6 -3 5 1
10 9 10 9 0 16 -2 16 -4z m-305 -26 c3 -5 1 -10 -4 -10 -6 0 -11 5 -11 10 0 6
2 10 4 10 3 0 8 -4 11 -10z m85 -10 c0 -13 61 -23 72 -12 5 5 20 7 34 4 18 -3
23 -9 19 -22 -10 -32 48 -59 85 -40 17 9 43 -7 53 -32 7 -19 -17 -43 -33 -33
-5 3 -10 2 -10 -3 0 -5 -12 -12 -27 -15 -33 -6 -102 27 -153 73 -19 18 -46 36
-60 42 -20 8 -22 11 -10 20 12 8 11 9 -3 4 -22 -7 -45 3 -29 13 15 9 62 10 62
1z m1360 -21 c0 -5 -4 -9 -8 -9 -5 0 -9 7 -9 15 0 8 4 12 9 9 4 -3 8 -9 8 -15z
m140 -83 c0 -2 -8 -10 -17 -17 -16 -13 -17 -12 -4 4 13 16 21 21 21 13z m-110
-46 c0 -5 -5 -10 -11 -10 -5 0 -7 5 -4 10 3 6 8 10 11 10 2 0 4 -4 4 -10z
m240 7 c0 -2 -10 -12 -22 -23 l-23 -19 19 23 c18 21 26 27 26 19z m-170 -12
c0 -7 -30 -13 -34 -7 -3 4 4 9 15 9 10 1 19 0 19 -2z m-440 -31 c0 -8 -5 -12
-10 -9 -6 4 -8 11 -5 16 9 14 15 11 15 -7z m40 -4 c0 -5 -5 -10 -11 -10 -5 0
-7 5 -4 10 3 6 8 10 11 10 2 0 4 -4 4 -10z m558 -1 c-19 -11 -25 -49 -8 -49 5
0 6 -8 3 -17 -4 -11 -8 -12 -11 -5 -6 19 -30 14 -37 -8 -7 -22 -25 -26 -42 -9
-7 7 -12 3 -17 -15 -7 -27 -20 -34 -32 -15 -8 14 85 109 108 109 9 0 20 5 23
10 3 6 12 10 18 10 7 0 4 -5 -5 -11z m-218 -34 c-7 -8 -16 -12 -21 -9 -13 8
-1 24 18 24 13 0 13 -3 3 -15z m-45 -29 c10 -10 11 -16 2 -25 -16 -16 -24 -14
-30 8 -8 31 6 40 28 17z m-39 -23 c-4 -9 -1 -20 6 -24 7 -4 9 -11 5 -15 -10
-10 -36 27 -30 43 3 7 10 13 15 13 6 0 7 -8 4 -17z m-256 -39 c-13 -22 -60
-47 -60 -33 0 5 14 18 31 28 17 10 26 22 21 25 -6 3 -13 0 -15 -6 -4 -10 -8
-9 -16 2 -14 20 18 33 37 15 11 -10 11 -17 2 -31z m159 -1 c-6 -7 -17 -13 -24
-13 -19 0 -36 -26 -29 -44 4 -11 13 -15 25 -11 18 6 25 -8 20 -38 -1 -5 3 -6
9 -2 5 3 10 -1 10 -9 0 -23 21 -20 27 4 3 11 13 20 23 20 9 0 29 10 44 21 20
16 30 19 38 11 8 -8 17 -8 31 0 12 6 22 6 26 1 3 -6 13 -12 21 -15 11 -4 8 -8
-11 -16 -26 -10 -40 -31 -48 -68 0 -4 -7 -1 -14 5 -8 6 -12 23 -9 41 5 33 -2
37 -25 15 -8 -8 -19 -13 -24 -10 -8 6 -13 -17 -12 -53 1 -7 -10 -18 -23 -24
-13 -6 -24 -15 -24 -20 0 -5 -5 -6 -11 -3 -6 4 -8 13 -5 20 3 10 -4 13 -28 11
-19 -2 -44 3 -57 10 -24 13 -24 13 -2 14 16 0 21 4 16 15 -3 9 2 22 13 30 16
12 17 14 3 15 -20 0 -49 30 -30 30 7 0 9 5 6 10 -4 6 -2 16 3 23 5 7 12 22 15
35 5 22 5 23 -18 8 -19 -13 -23 -13 -19 -2 3 7 20 18 37 23 25 8 35 7 44 -5 9
-11 10 -19 2 -29z m56 38 c3 -5 1 -12 -5 -16 -5 -3 -10 1 -10 9 0 18 6 21 15
7z m920 -1 c3 -5 1 -10 -4 -10 -6 0 -11 5 -11 10 0 6 2 10 4 10 3 0 8 -4 11
-10z m-1198 -35 c0 -17 -13 -20 -21 -6 -4 5 0 12 6 14 7 3 13 6 14 6 0 1 1 -6
1 -14z m297 -25 c-6 -6 -10 -2 -11 12 -2 16 1 18 10 9 7 -7 8 -14 1 -21z
m-504 -11 c0 -6 -4 -7 -10 -4 -5 3 -10 11 -10 16 0 6 5 7 10 4 6 -3 10 -11 10
-16z m185 -3 c13 -14 25 -23 28 -20 2 3 2 -7 0 -21 -4 -17 -12 -25 -25 -25
-17 0 -18 2 -8 15 10 13 10 19 -2 33 -38 44 -31 59 7 18z m263 2 c-2 -6 -10
-14 -16 -16 -7 -2 -10 2 -6 12 7 18 28 22 22 4z m306 -14 c4 -9 4 -19 1 -22
-7 -8 -35 19 -29 29 8 14 21 11 28 -7z m-274 2 c0 -3 -4 -8 -10 -11 -5 -3 -10
-1 -10 4 0 6 5 11 10 11 6 0 10 -2 10 -4z m-430 -41 c-6 -8 -9 -19 -5 -25 4
-6 -2 -20 -14 -31 -12 -11 -21 -18 -22 -17 0 2 -2 10 -4 19 -1 9 -6 27 -10 39
-6 18 -4 21 12 16 10 -3 25 -1 33 4 21 14 24 12 10 -5z m315 -5 c3 -5 -1 -10
-9 -10 -9 0 -16 5 -16 10 0 6 4 10 9 10 6 0 13 -4 16 -10z m355 -15 c0 -8 -4
-15 -9 -15 -5 0 -11 7 -15 15 -3 9 0 15 9 15 8 0 15 -7 15 -15z m-480 -10 c0
-8 -7 -15 -15 -15 -16 0 -20 12 -8 23 11 12 23 8 23 -8z m-41 -27 c10 -30 9
-31 -4 -14 -8 11 -15 26 -15 33 0 22 8 14 19 -19z m128 8 c3 -2 -14 -10 -36
-17 -46 -14 -64 -6 -35 16 17 13 59 13 71 1z m-27 -150 c0 -3 -4 -8 -10 -11
-5 -3 -10 -1 -10 4 0 6 5 11 10 11 6 0 10 -2 10 -4z m100 -16 c0 -5 -2 -10 -4
-10 -3 0 -8 5 -11 10 -3 6 -1 10 4 10 6 0 11 -4 11 -10z m-100 -45 c0 -7 -11
-15 -25 -17 -27 -6 -35 9 -11 18 9 3 12 12 8 22 -5 15 -4 15 11 3 9 -7 17 -19
17 -26z m9 -158 c14 4 14 3 1 -6 -22 -16 -40 -13 -40 6 0 13 3 14 11 6 6 -6
19 -9 28 -6z m256 -7 c-3 -5 -12 -10 -18 -10 -7 0 -6 4 3 10 19 12 23 12 15 0z
m-410 -29 c11 -5 25 -4 32 1 15 12 43 4 43 -12 0 -5 -8 -10 -18 -10 -10 0 -23
-5 -30 -12 -15 -15 -62 5 -62 27 0 17 5 17 35 6z"/>
<path d="M6240 7254 c0 -1 6 -7 14 -13 10 -8 16 -8 25 3 10 11 7 14 -14 12
-14 0 -25 -2 -25 -2z"/>
<path d="M6300 7209 c0 -5 5 -7 10 -4 6 3 10 8 10 11 0 2 -4 4 -10 4 -5 0 -10
-5 -10 -11z"/>
<path d="M8140 6274 c0 -8 5 -12 10 -9 6 4 8 11 5 16 -9 14 -15 11 -15 -7z"/>
<path d="M8025 6170 c-3 -5 -1 -10 4 -10 6 0 11 5 11 10 0 6 -2 10 -4 10 -3 0
-8 -4 -11 -10z"/>
<path d="M8000 6101 c0 -5 5 -13 10 -16 6 -3 10 -2 10 4 0 5 -4 13 -10 16 -5
3 -10 2 -10 -4z"/>
<path d="M7845 6000 c3 -5 8 -10 11 -10 2 0 4 5 4 10 0 6 -5 10 -11 10 -5 0
-7 -4 -4 -10z"/>
<path d="M7790 5901 c0 -8 34 -21 55 -21 11 1 -35 29 -47 30 -5 0 -8 -4 -8 -9z"/>
<path d="M7670 5870 c0 -5 8 -19 17 -30 13 -14 20 -17 30 -8 18 14 16 31 -2
24 -8 -3 -15 -1 -15 3 0 5 -7 11 -15 15 -8 3 -15 1 -15 -4z"/>
<path d="M7620 5850 c0 -5 5 -10 10 -10 6 0 10 5 10 10 0 6 -4 10 -10 10 -5 0
-10 -4 -10 -10z"/>
<path d="M7573 5808 c-24 -27 -18 -64 7 -48 13 9 13 11 1 19 -12 8 -12 12 2
26 16 15 21 25 14 25 -2 0 -13 -10 -24 -22z"/>
<path d="M7605 5800 c-3 -6 1 -7 9 -4 18 7 21 14 7 14 -6 0 -13 -4 -16 -10z"/>
<path d="M7510 5740 c-8 -5 -11 -12 -7 -16 4 -4 13 -2 19 4 15 15 7 24 -12 12z"/>
<path d="M8550 6335 c-24 -14 -24 -14 -4 -15 12 0 24 7 28 15 6 18 7 18 -24 0z"/>
<path d="M6460 6161 c0 -5 5 -13 10 -16 6 -3 10 -2 10 4 0 5 -4 13 -10 16 -5
3 -10 2 -10 -4z"/>
<path d="M6502 6099 c2 -6 8 -10 13 -10 5 0 11 4 13 10 2 6 -4 11 -13 11 -9 0
-15 -5 -13 -11z"/>
<path d="M6930 8420 c-8 -5 -10 -10 -5 -10 6 0 17 5 25 10 8 5 11 10 5 10 -5
0 -17 -5 -25 -10z"/>
<path d="M8396 8401 c-5 -8 -4 -16 5 -21 9 -6 10 -12 2 -22 -16 -21 -23 -60
-10 -55 7 2 13 13 15 25 2 14 8 19 20 16 15 -5 15 -4 2 6 -11 9 -12 13 -2 17
17 7 15 26 -2 20 -9 -4 -16 1 -18 11 -3 14 -5 14 -12 3z"/>
<path d="M6826 8375 c-11 -8 -15 -15 -9 -15 6 0 16 7 23 15 16 19 11 19 -14 0z"/>
<path d="M6950 8329 c0 -5 5 -7 10 -4 6 3 10 8 10 11 0 2 -4 4 -10 4 -5 0 -10
-5 -10 -11z"/>
<path d="M6600 8195 c-41 -41 -72 -76 -69 -79 2 -3 40 31 83 74 43 44 75 80
70 80 -5 0 -43 -34 -84 -75z"/>
<path d="M8510 8260 c0 -5 5 -10 11 -10 5 0 7 5 4 10 -3 6 -8 10 -11 10 -2 0
-4 -4 -4 -10z"/>
<path d="M6429 8193 c-13 -16 -12 -17 4 -4 9 7 17 15 17 17 0 8 -8 3 -21 -13z"/>
<path d="M6435 8130 c4 -6 11 -8 16 -4 6 3 19 -2 30 -12 10 -9 19 -12 19 -6 0
13 -32 32 -55 32 -9 0 -13 -5 -10 -10z"/>
<path d="M6592 8017 c-9 -11 -10 -17 -2 -22 15 -9 23 -1 18 21 -3 15 -4 16
-16 1z"/>
<path d="M7836 8015 c4 -8 11 -15 16 -15 6 0 5 6 -2 15 -7 8 -14 15 -16 15 -2
0 -1 -7 2 -15z"/>
<path d="M7930 7961 c0 -5 5 -13 10 -16 6 -3 10 -2 10 4 0 5 -4 13 -10 16 -5
3 -10 2 -10 -4z"/>
<path d="M2760 7940 c0 -5 5 -10 10 -10 6 0 10 5 10 10 0 6 -4 10 -10 10 -5 0
-10 -4 -10 -10z"/>
<path d="M2851 7937 c-9 -12 -5 -14 29 -11 30 3 39 0 34 -9 -5 -9 -4 -9 6 0
17 15 13 19 -26 27 -21 5 -35 2 -43 -7z"/>
<path d="M2797 7925 c-4 -8 -3 -16 1 -19 4 -3 9 4 9 15 2 23 -3 25 -10 4z"/>
<path d="M7410 7906 c0 -2 8 -10 18 -17 15 -13 16 -12 3 4 -13 16 -21 21 -21
13z"/>
<path d="M2740 7880 c0 -5 7 -7 15 -4 8 4 15 8 15 10 0 2 -7 4 -15 4 -8 0 -15
-4 -15 -10z"/>
<path d="M2910 7881 c0 -6 5 -13 10 -16 6 -3 10 1 10 9 0 9 -4 16 -10 16 -5 0
-10 -4 -10 -9z"/>
<path d="M5787 7883 c-14 -13 -7 -21 17 -19 18 1 22 4 14 14 -12 13 -21 15
-31 5z"/>
<path d="M6190 7853 c-21 -22 -22 -24 -4 -15 23 12 51 42 38 41 -5 0 -20 -12
-34 -26z"/>
<path d="M2906 7838 c4 -6 -1 -17 -11 -25 -11 -7 -14 -13 -9 -13 14 0 34 22
34 37 0 7 -5 13 -11 13 -5 0 -7 -5 -3 -12z"/>
<path d="M5675 7829 c-4 -6 -5 -12 -2 -15 2 -3 7 2 10 11 7 17 1 20 -8 4z"/>
<path d="M7028 7796 c-20 -8 -25 -15 -18 -26 7 -11 14 -9 36 13 29 29 25 32
-18 13z"/>
<path d="M5650 7778 c-12 -22 -12 -22 6 -6 10 10 15 20 12 24 -4 3 -12 -5 -18
-18z"/>
<path d="M3000 7774 c0 -8 5 -12 10 -9 6 4 8 11 5 16 -9 14 -15 11 -15 -7z"/>
<path d="M6925 7750 c-10 -16 17 -23 31 -8 12 12 11 14 -6 15 -11 1 -22 -2
-25 -7z"/>
<path d="M7170 7746 c0 -8 4 -17 9 -20 5 -4 7 3 4 14 -6 23 -13 26 -13 6z"/>
<path d="M7075 7740 c3 -5 11 -10 16 -10 6 0 7 5 4 10 -3 6 -11 10 -16 10 -6
0 -7 -4 -4 -10z"/>
<path d="M7500 7711 c0 -6 5 -13 10 -16 6 -3 10 1 10 9 0 9 -4 16 -10 16 -5 0
-10 -4 -10 -9z"/>
<path d="M5526 7484 c-4 -9 -4 -19 -1 -22 2 -3 7 3 11 12 4 9 4 19 1 22 -2 3
-7 -3 -11 -12z"/>
<path d="M8286 7448 c3 -4 12 -8 20 -8 8 0 14 4 14 8 0 4 -9 8 -19 8 -11 0
-17 -4 -15 -8z"/>
<path d="M8680 7430 c0 -5 5 -10 10 -10 6 0 10 5 10 10 0 6 -4 10 -10 10 -5 0
-10 -4 -10 -10z"/>
<path d="M5502 7400 c0 -14 2 -19 5 -12 2 6 2 18 0 25 -3 6 -5 1 -5 -13z"/>
<path d="M4917 7357 c-3 -8 -9 -35 -12 -61 -8 -50 5 -62 27 -26 7 11 18 20 24
20 15 0 8 28 -15 59 -14 19 -19 20 -24 8z"/>
<path d="M6055 7270 c-3 -5 -1 -10 4 -10 6 0 11 5 11 10 0 6 -2 10 -4 10 -3 0
-8 -4 -11 -10z"/>
<path d="M8598 7216 c-25 -18 -23 -21 17 -23 26 -1 35 3 35 14 0 12 -3 13 -14
4 -11 -10 -15 -9 -18 3 -2 12 -6 12 -20 2z"/>
<path d="M3175 7145 c-3 -8 -7 -22 -10 -31 -4 -14 -3 -15 9 -5 12 10 13 9 9
-9 -3 -11 -9 -23 -14 -26 -5 -3 -9 -14 -9 -24 0 -10 -6 -25 -12 -32 -12 -12
-17 -25 -22 -54 -3 -18 -33 -44 -41 -36 -5 4 -5 2 -1 -5 3 -6 -4 -19 -16 -28
l-23 -17 24 7 c31 9 18 -13 -15 -25 -13 -5 -24 -16 -24 -25 0 -30 -22 -52 -46
-47 -24 4 -28 -3 -25 -40 1 -9 -3 -19 -9 -23 -6 -4 -10 5 -10 21 0 37 -10 24
-16 -20 -5 -44 6 -46 37 -5 13 17 32 41 44 53 73 82 100 121 145 213 30 63 50
117 50 138 0 35 -17 48 -25 20z"/>
<path d="M5970 7140 c-8 -5 -12 -12 -9 -15 4 -3 12 1 19 10 14 17 11 19 -10 5z"/>
<path d="M3082 7072 c-64 -61 -91 -95 -62 -77 6 3 10 1 10 -4 0 -6 4 -11 10
-11 5 0 7 7 4 15 -8 19 14 47 29 38 6 -3 7 -1 3 5 -4 7 12 30 41 57 26 24 45
45 42 45 -3 0 -38 -31 -77 -68z"/>
<path d="M5003 7104 c-3 -9 -3 -77 0 -152 5 -122 10 -152 47 -277 23 -77 44
-149 47 -160 3 -11 16 -48 30 -83 13 -34 21 -67 18 -72 -3 -5 3 -30 15 -54 11
-25 20 -57 20 -72 0 -32 44 -101 70 -109 11 -4 36 -51 70 -133 28 -70 60 -140
70 -157 10 -16 21 -41 25 -54 4 -14 21 -47 38 -74 19 -31 26 -51 19 -56 -6 -3
19 -34 59 -74 38 -37 69 -65 69 -61 0 4 17 -11 38 -33 39 -43 195 -166 250
-198 17 -11 32 -23 32 -26 0 -4 21 -18 47 -31 25 -13 62 -40 81 -60 19 -20 48
-40 64 -43 15 -4 28 -11 28 -16 0 -5 7 -9 16 -9 8 0 12 4 9 10 -3 5 0 7 9 4 8
-3 13 -11 10 -18 -6 -17 62 -46 75 -33 6 6 11 14 11 19 0 9 -62 43 -72 40 -5
-1 -8 3 -8 9 0 6 -9 8 -20 4 -11 -4 -20 -3 -19 2 3 20 -2 34 -11 28 -5 -3 -10
1 -10 9 0 8 -8 17 -19 21 -24 7 -59 45 -41 45 7 0 23 -12 36 -26 13 -14 28
-22 34 -19 5 3 26 -5 47 -19 20 -14 39 -23 42 -19 3 3 1 8 -6 10 -6 2 -24 15
-40 29 -15 13 -37 27 -48 30 -11 4 -46 33 -78 65 -52 52 -77 66 -110 60 -5 -1
-5 3 -2 9 4 6 -5 22 -18 34 -27 25 -40 24 -30 0 3 -8 1 -14 -5 -14 -16 0 -22
26 -9 40 9 9 6 17 -16 34 -50 37 -167 153 -167 165 0 17 13 13 50 -14 19 -14
37 -25 41 -25 7 0 114 -69 199 -128 30 -21 82 -49 115 -61 33 -12 68 -27 79
-33 29 -15 117 -40 154 -44 58 -5 116 -15 137 -24 11 -4 28 -11 38 -14 13 -4
16 -12 11 -33 l-7 -28 27 25 c15 14 36 24 46 22 13 -2 18 4 18 24 0 18 -3 22
-9 13 -7 -11 -12 -11 -26 4 -17 17 -17 18 0 11 10 -3 17 -1 17 5 0 6 -5 11
-12 11 -6 0 -8 3 -5 6 4 4 13 1 22 -6 20 -16 19 -1 -1 28 -9 13 -22 21 -30 18
-8 -3 -23 3 -34 14 -11 11 -26 17 -34 14 -17 -6 -59 46 -61 76 -1 12 -10 29
-19 38 -17 16 -18 16 -11 -5 4 -15 2 -23 -5 -23 -6 0 -8 -5 -4 -12 4 -7 3 -8
-4 -4 -6 3 -16 -2 -21 -12 -13 -24 -3 -36 16 -20 18 14 36 -2 28 -25 -7 -17
-28 -13 -56 11 -15 13 -15 17 -1 46 9 17 20 34 26 38 7 5 6 8 -3 8 -17 0 -40
-29 -41 -52 0 -10 -11 -20 -25 -24 -22 -5 -24 -9 -13 -23 12 -14 11 -14 -4 -3
-9 8 -22 11 -28 7 -5 -3 -10 -1 -10 5 0 6 -5 8 -12 4 -7 -4 -8 -3 -4 5 10 16
-12 41 -29 35 -8 -3 -22 4 -32 15 -21 25 -33 27 -33 6 0 -22 -17 -19 -87 18
-46 23 -61 36 -58 48 4 12 -1 17 -20 17 -13 0 -22 -4 -19 -9 3 -5 0 -9 -5 -9
-6 0 -11 5 -11 11 0 5 -5 7 -11 3 -8 -5 -8 -8 0 -14 17 -10 2 -42 -16 -36 -8
3 -20 6 -27 6 -16 0 -103 80 -88 81 26 3 31 4 37 10 3 4 -8 11 -24 17 -17 6
-31 17 -31 25 0 7 -9 23 -21 35 -11 12 -17 27 -14 32 4 6 1 9 -7 8 -7 -2 -13
4 -13 12 0 8 -4 21 -8 28 -5 6 -6 16 -2 22 9 15 -32 50 -51 43 -10 -4 -22 1
-30 11 -9 13 -17 15 -31 8 -10 -5 -24 -7 -31 -5 -7 3 -19 0 -27 -7 -12 -10
-25 11 -80 119 -59 118 -75 161 -60 161 3 0 32 -18 65 -41 91 -62 175 -64 136
-4 -15 23 -15 27 -1 48 14 21 14 27 0 54 -8 17 -29 36 -45 43 -17 7 -42 26
-56 42 -26 32 -88 78 -104 78 -6 0 -10 9 -10 19 0 23 -52 81 -73 81 -9 0 -19
5 -23 12 -4 7 -3 8 4 4 7 -4 12 -1 12 8 0 8 -8 20 -19 25 -13 7 -17 18 -14 36
4 20 1 25 -16 25 -13 0 -21 7 -22 18 0 14 -2 14 -9 -3 -5 -11 -9 -14 -9 -7 -1
7 -5 11 -10 7 -13 -7 -24 30 -16 55 4 11 2 20 -4 20 -6 0 -11 11 -11 24 0 13
-7 29 -15 36 -8 7 -17 27 -21 45 -3 19 -13 36 -21 39 -9 4 -12 13 -8 25 3 10
-2 35 -12 56 -17 35 -17 37 0 47 14 7 16 13 6 24 -6 7 -15 11 -20 8 -5 -3 -9
17 -9 44 0 30 -5 54 -14 61 -8 7 -17 23 -20 36 -7 29 -43 35 -53 9z m762
-1474 c3 -5 1 -10 -4 -10 -6 0 -11 5 -11 10 0 6 2 10 4 10 3 0 8 -4 11 -10z
m265 -350 c0 -5 -2 -10 -4 -10 -3 0 -8 5 -11 10 -3 6 -1 10 4 10 6 0 11 -4 11
-10z"/>
<path d="M8170 7111 c0 -11 31 -24 39 -16 3 3 -1 10 -9 15 -19 12 -30 12 -30
1z"/>
<path d="M3085 7020 c-3 -5 -1 -10 4 -10 6 0 11 5 11 10 0 6 -2 10 -4 10 -3 0
-8 -4 -11 -10z"/>
<path d="M2993 6957 c-16 -34 -33 -92 -33 -108 1 -8 12 17 25 56 24 69 28 95
8 52z"/>
<path d="M3235 6929 c-4 -6 -5 -12 -2 -15 2 -3 7 2 10 11 7 17 1 20 -8 4z"/>
<path d="M3035 6917 c-15 -12 -16 -15 -4 -22 8 -5 11 -5 7 0 -4 4 0 14 10 21
23 18 11 18 -13 1z"/>
<path d="M2951 6823 c-1 -6 -4 -20 -7 -30 -5 -17 -5 -17 6 0 6 10 9 23 6 30
-3 9 -5 9 -5 0z"/>
<path d="M5510 6799 c0 -5 5 -7 10 -4 6 3 10 8 10 11 0 2 -4 4 -10 4 -5 0 -10
-5 -10 -11z"/>
<path d="M3185 6780 c-3 -5 1 -10 10 -10 9 0 13 5 10 10 -3 6 -8 10 -10 10 -2
0 -7 -4 -10 -10z"/>
<path d="M3320 6751 c-6 -12 -19 -21 -30 -21 -23 0 -39 -25 -34 -54 3 -12 2
-15 -2 -8 -3 6 -10 12 -15 12 -15 0 -10 -27 11 -65 11 -19 15 -35 10 -35 -6 0
-10 5 -10 10 0 6 -9 10 -19 10 -14 0 -18 -5 -14 -20 4 -17 1 -20 -18 -17 -16
3 -26 13 -31 35 -5 18 -13 32 -18 32 -6 0 -9 -3 -8 -7 2 -8 -5 -48 -18 -103
-22 -95 -22 -100 -3 -89 11 5 19 12 19 15 0 3 -4 2 -10 -1 -5 -3 -10 -2 -10 4
0 17 20 23 26 8 5 -13 9 -13 32 -1 15 7 45 16 68 20 41 6 42 7 51 54 6 27 7
54 2 61 -4 7 -1 19 7 26 17 17 18 49 2 59 -8 5 -9 2 -4 -11 5 -14 4 -16 -7 -7
-8 7 -16 11 -18 9 -2 -1 2 4 11 11 8 7 20 10 26 8 7 -3 14 11 18 36 8 47 2 59
-14 29z m-30 -41 c0 -5 -4 -10 -10 -10 -5 0 -10 5 -10 10 0 6 5 10 10 10 6 0
10 -4 10 -10z m-6 -72 c-3 -4 -9 -8 -15 -8 -5 0 -9 4 -9 8 0 5 7 9 15 9 8 0
12 -4 9 -9z m-114 -98 c-9 -17 -4 -30 12 -30 5 0 7 4 4 8 -2 4 0 14 6 22 8 13
9 12 5 -1 -3 -9 -1 -21 5 -27 16 -16 -10 -44 -36 -40 -16 2 -21 11 -23 36 -1
22 2 30 10 25 7 -4 6 0 -1 10 -18 21 -6 43 14 26 9 -8 11 -16 4 -29z m114 16
c-3 -8 -12 -12 -20 -9 -17 6 -9 23 11 23 8 0 12 -6 9 -14z"/>
<path d="M5452 6720 c0 -14 2 -19 5 -12 2 6 2 18 0 25 -3 6 -5 1 -5 -13z"/>
<path d="M3745 6700 c-3 -5 -1 -10 4 -10 6 0 11 5 11 10 0 6 -2 10 -4 10 -3 0
-8 -4 -11 -10z"/>
<path d="M5931 6696 c-8 -10 -9 -16 -1 -21 5 -3 13 1 16 10 9 22 -1 29 -15 11z"/>
<path d="M5876 6685 c-4 -10 1 -15 14 -15 13 0 18 5 14 15 -4 8 -10 15 -14 15
-4 0 -10 -7 -14 -15z"/>
<path d="M3157 6673 c-4 -3 -7 -13 -7 -21 0 -12 3 -12 15 -2 8 7 15 16 15 21
0 11 -14 12 -23 2z"/>
<path d="M5475 6615 c45 -120 94 -196 187 -287 101 -100 141 -123 193 -114 31
6 35 4 35 -14 0 -26 33 -92 55 -110 23 -19 38 0 26 32 -9 23 -7 25 10 21 13
-4 19 0 19 11 0 10 -5 14 -10 11 -18 -11 -66 17 -83 47 -12 21 -23 29 -39 26
-13 -1 -24 1 -25 5 -1 4 -9 14 -17 22 -8 8 -16 20 -18 27 -2 6 -10 8 -16 4
-18 -11 -14 -26 6 -19 16 5 16 5 0 -12 -16 -17 -18 -17 -51 8 -121 92 -215
220 -264 357 -10 27 -21 50 -25 50 -4 0 3 -29 17 -65z m341 -382 c-10 -10 -19
5 -10 18 6 11 8 11 12 0 2 -7 1 -15 -2 -18z"/>
<path d="M5895 6640 c4 -13 2 -20 -6 -20 -7 0 -9 -3 -6 -7 9 -9 48 27 41 38
-3 5 -12 9 -20 9 -11 0 -13 -6 -9 -20z"/>
<path d="M5580 6629 c0 -5 5 -7 10 -4 6 3 10 8 10 11 0 2 -4 4 -10 4 -5 0 -10
-5 -10 -11z"/>
<path d="M5924 6614 c-18 -14 -18 -15 4 -4 12 6 22 13 22 15 0 8 -5 6 -26 -11z"/>
<path d="M5951 6603 c-18 -20 -11 -22 23 -8 24 10 26 13 9 17 -10 3 -25 -1
-32 -9z"/>
<path d="M5805 6600 c3 -5 11 -10 16 -10 6 0 7 5 4 10 -3 6 -11 10 -16 10 -6
0 -7 -4 -4 -10z"/>
<path d="M3906 6576 c-20 -9 -25 -15 -15 -19 11 -4 11 -6 -1 -6 -8 -1 -28 6
-44 14 -25 13 -27 13 -22 0 3 -8 1 -15 -4 -15 -6 0 -10 -8 -10 -17 0 -15 2
-16 10 -3 5 8 10 13 11 10 0 -3 2 -16 5 -29 4 -20 2 -22 -10 -12 -12 10 -13 9
-9 -8 3 -12 9 -19 13 -16 5 3 10 0 12 -7 4 -10 8 -9 19 2 27 29 44 54 32 46
-8 -4 -13 -2 -13 5 0 7 10 9 24 7 17 -4 23 -1 19 9 -3 7 -1 13 4 13 4 0 14 9
21 20 15 24 3 25 -42 6z"/>
<path d="M5620 6580 c0 -16 38 -32 46 -19 7 12 -12 29 -33 29 -7 0 -13 -4 -13
-10z"/>
<path d="M5990 6580 c0 -5 5 -10 10 -10 6 0 10 5 10 10 0 6 -4 10 -10 10 -5 0
-10 -4 -10 -10z"/>
<path d="M5740 6570 c0 -5 7 -7 15 -4 8 4 15 8 15 10 0 2 -7 4 -15 4 -8 0 -15
-4 -15 -10z"/>
<path d="M5830 6556 c7 -7 14 -6 21 1 9 9 7 12 -9 10 -14 -1 -18 -5 -12 -11z"/>
<path d="M5770 6535 c0 -8 8 -15 18 -14 10 0 12 3 4 6 -6 2 -10 9 -6 14 3 5 0
9 -5 9 -6 0 -11 -7 -11 -15z"/>
<path d="M5886 6543 c-4 -5 -12 -9 -17 -9 -22 -3 -23 -5 -9 -14 17 -11 37 -13
27 -3 -4 3 -2 12 4 20 12 14 8 18 -5 6z"/>
<path d="M3369 6523 c-13 -15 -12 -15 11 -3 34 17 36 20 18 20 -9 0 -22 -7
-29 -17z"/>
<path d="M5896 6487 c3 -10 9 -15 12 -12 3 3 0 11 -7 18 -10 9 -11 8 -5 -6z"/>
<path d="M5962 6487 c-6 -6 -13 -23 -17 -37 -5 -22 -3 -25 20 -25 14 0 25 6
25 13 0 6 -5 12 -11 12 -7 0 -9 10 -5 25 7 28 4 31 -12 12z"/>
<path d="M3932 6436 c-17 -37 -15 -45 4 -18 8 12 14 27 12 33 -2 6 -9 -1 -16
-15z"/>
<path d="M3898 6433 c7 -3 16 -2 19 1 4 3 -2 6 -13 5 -11 0 -14 -3 -6 -6z"/>
<path d="M3975 6430 c-3 -5 -1 -10 4 -10 6 0 11 5 11 10 0 6 -2 10 -4 10 -3 0
-8 -4 -11 -10z"/>
<path d="M4904 6405 c20 -86 30 -109 54 -132 15 -13 21 -23 15 -21 -6 2 -11
-1 -12 -7 -1 -5 7 -10 17 -10 9 0 24 -5 32 -10 8 -5 -4 14 -28 42 -37 45 -42
56 -37 85 5 28 2 37 -21 58 l-27 25 7 -30z"/>
<path d="M3381 6384 c0 -11 3 -14 6 -6 3 7 2 16 -1 19 -3 4 -6 -2 -5 -13z"/>
<path d="M5902 6387 c-8 -10 -6 -13 9 -14 10 -1 19 5 19 13 0 17 -14 18 -28 1z"/>
<path d="M3956 6382 c-3 -5 1 -9 9 -9 8 0 12 4 9 9 -3 4 -7 8 -9 8 -2 0 -6 -4
-9 -8z"/>
<path d="M5920 6340 c0 -5 5 -10 10 -10 6 0 10 5 10 10 0 6 -4 10 -10 10 -5 0
-10 -4 -10 -10z"/>
<path d="M3370 6315 c0 -8 2 -15 4 -15 2 0 6 7 10 15 3 8 1 15 -4 15 -6 0 -10
-7 -10 -15z"/>
<path d="M4165 6300 c-7 -12 2 -30 16 -30 5 0 9 9 9 20 0 21 -15 27 -25 10z"/>
<path d="M3361 6274 c0 -11 3 -14 6 -6 3 7 2 16 -1 19 -3 4 -6 -2 -5 -13z"/>
<path d="M4610 6266 c0 -2 7 -7 16 -10 8 -3 12 -2 9 4 -6 10 -25 14 -25 6z"/>
<path d="M2966 6244 c-8 -20 -8 -24 2 -24 4 0 8 9 9 20 2 24 -3 26 -11 4z"/>
<path d="M3351 6234 c0 -11 3 -14 6 -6 3 7 2 16 -1 19 -3 4 -6 -2 -5 -13z"/>
<path d="M3900 6230 c0 -5 5 -10 11 -10 5 0 7 5 4 10 -3 6 -8 10 -11 10 -2 0
-4 -4 -4 -10z"/>
<path d="M3290 6221 c0 -5 5 -13 10 -16 6 -3 10 -2 10 4 0 5 -4 13 -10 16 -5
3 -10 2 -10 -4z"/>
<path d="M3900 6190 c0 -11 2 -20 4 -20 2 0 6 9 9 20 3 11 1 20 -4 20 -5 0 -9
-9 -9 -20z"/>
<path d="M4660 6200 c0 -5 -8 -6 -17 -3 -15 6 -16 5 -3 -9 12 -12 17 -13 27
-2 16 15 17 24 3 24 -5 0 -10 -4 -10 -10z"/>
<path d="M4999 6193 c-13 -17 -13 -17 6 -3 11 8 22 16 24 17 2 2 0 3 -6 3 -6
0 -17 -8 -24 -17z"/>
<path d="M2932 6179 c-10 -15 -11 -24 -3 -32 8 -8 11 -5 11 11 0 13 6 22 16
22 8 0 12 5 9 10 -9 15 -19 12 -33 -11z"/>
<path d="M3296 6171 c-4 -7 -5 -15 -2 -18 9 -9 19 4 14 18 -4 11 -6 11 -12 0z"/>
<path d="M6030 6164 c0 -14 22 -34 37 -34 7 0 13 5 13 11 0 5 -5 7 -12 3 -6
-4 -17 1 -25 11 -7 11 -13 14 -13 9z"/>
<path d="M4500 6140 c0 -5 5 -12 10 -15 6 -3 10 -1 10 5 0 6 6 8 13 4 6 -4 8
-3 4 1 -10 12 -37 15 -37 5z"/>
<path d="M4980 6140 c0 -5 5 -10 11 -10 5 0 7 5 4 10 -3 6 -8 10 -11 10 -2 0
-4 -4 -4 -10z"/>
<path d="M5235 6100 c-3 -5 -1 -10 4 -10 6 0 11 5 11 10 0 6 -2 10 -4 10 -3 0
-8 -4 -11 -10z"/>
<path d="M4976 6092 c-7 -11 28 -67 66 -105 10 -10 18 -22 18 -27 0 -5 8 -6
18 -3 15 6 16 5 2 -12 -10 -13 -11 -16 -2 -11 9 6 23 -3 42 -25 15 -19 31 -31
35 -27 4 4 -7 19 -24 33 -17 15 -31 33 -31 40 0 8 -13 23 -30 35 -16 12 -30
27 -30 34 0 21 -56 81 -64 68z"/>
<path d="M6075 6088 c5 -13 0 -20 -16 -27 -13 -5 -28 -7 -32 -4 -4 3 -5 -8 -1
-24 8 -35 8 -35 25 -28 19 7 41 77 28 90 -7 7 -8 4 -4 -7z"/>
<path d="M8647 6073 c-4 -3 -7 -11 -7 -17 0 -6 5 -5 12 2 6 6 9 14 7 17 -3 3
-9 2 -12 -2z"/>
<path d="M4498 6045 c-12 -28 -23 -32 -32 -12 -4 6 -4 2 -2 -10 2 -12 -1 -24
-7 -26 -8 -2 -7 -6 1 -11 7 -4 12 -2 12 3 0 6 8 11 18 11 23 1 63 30 40 30
-11 0 -15 6 -11 20 7 28 -5 25 -19 -5z"/>
<path d="M5871 6041 c-45 -14 -51 -18 -39 -29 8 -6 18 -9 22 -5 4 4 26 6 49 4
23 -1 39 1 34 5 -4 4 0 16 10 26 15 17 15 18 -3 17 -10 -1 -43 -8 -73 -18z"/>
<path d="M8600 6035 c-7 -8 -8 -15 -2 -15 5 0 15 7 22 15 7 8 8 15 2 15 -5 0
-15 -7 -22 -15z"/>
<path d="M8542 5964 c-39 -43 -42 -57 -6 -23 24 22 49 59 41 59 -2 0 -18 -16
-35 -36z"/>
<path d="M3868 5963 c-5 -58 -4 -73 3 -85 5 -8 9 10 9 45 0 52 -8 80 -12 40z"/>
<path d="M5980 5955 c-10 -12 -10 -15 2 -15 8 0 15 7 15 15 0 8 -1 15 -2 15
-2 0 -8 -7 -15 -15z"/>
<path d="M5865 5929 c-4 -6 -5 -12 -2 -15 2 -3 7 2 10 11 7 17 1 20 -8 4z"/>
<path d="M6083 5934 c10 -10 -22 -36 -35 -28 -7 4 -5 -1 4 -11 16 -18 18 -17
37 6 21 24 31 21 44 -16 3 -6 8 -6 13 -1 5 5 4 11 -3 13 -7 2 -10 10 -7 17 3
8 -4 16 -18 20 -30 8 -43 8 -35 0z"/>
<path d="M3330 5927 c0 -4 13 -28 30 -55 16 -26 30 -44 30 -39 0 4 -13 28 -30
55 -16 26 -30 44 -30 39z"/>
<path d="M8465 5894 c-15 -14 -25 -28 -22 -31 5 -5 57 44 57 53 0 8 -8 3 -35
-22z"/>
<path d="M4963 5890 c-1 -11 2 -20 6 -20 15 0 19 -39 6 -50 -19 -16 -28 -65
-17 -87 7 -13 6 -28 -3 -50 -9 -21 -10 -35 -4 -39 14 -8 16 -5 23 43 3 24 1
45 -5 48 -13 8 -1 47 19 61 9 6 17 28 17 48 2 29 -2 36 -16 36 -12 0 -16 5
-13 15 4 8 2 15 -3 15 -5 0 -9 -9 -10 -20z"/>
<path d="M2726 5851 c-16 -17 -16 -19 4 -24 11 -3 20 -1 20 4 0 5 -6 9 -12 9
-9 0 -8 3 2 10 8 5 12 11 9 15 -3 3 -13 -3 -23 -14z"/>
<path d="M6077 5864 c-3 -5 1 -15 9 -22 16 -14 18 -5 5 17 -5 7 -11 9 -14 5z"/>
<path d="M3881 5844 c0 -11 3 -14 6 -6 3 7 2 16 -1 19 -3 4 -6 -2 -5 -13z"/>
<path d="M8235 5840 c-3 -6 1 -7 9 -4 18 7 21 14 7 14 -6 0 -13 -4 -16 -10z"/>
<path d="M3340 5826 c0 -2 7 -7 16 -10 8 -3 12 -2 9 4 -6 10 -25 14 -25 6z"/>
<path d="M5955 5810 c-19 -8 -19 -9 3 -9 12 -1 22 4 22 9 0 6 -1 10 -2 9 -2 0
-12 -4 -23 -9z"/>
<path d="M3960 5800 c0 -5 5 -10 11 -10 5 0 7 5 4 10 -3 6 -8 10 -11 10 -2 0
-4 -4 -4 -10z"/>
<path d="M6750 5779 c0 -5 5 -7 10 -4 6 3 10 8 10 11 0 2 -4 4 -10 4 -5 0 -10
-5 -10 -11z"/>
<path d="M8130 5784 c0 -10 27 -33 33 -28 9 10 -4 34 -19 34 -8 0 -14 -3 -14
-6z"/>
<path d="M2665 5771 c-5 -9 -2 -17 9 -23 20 -11 21 -32 1 -24 -8 3 -16 2 -16
-2 -5 -32 -2 -56 9 -59 7 -3 12 5 12 22 0 17 4 24 12 19 6 -4 8 -3 4 4 -3 6
-1 14 5 18 9 5 8 10 -3 18 -8 6 -17 18 -20 26 -3 11 -6 12 -13 1z"/>
<path d="M3910 5774 c0 -6 6 -16 13 -23 10 -11 8 -11 -11 -1 -22 11 -23 10
-13 -9 9 -17 9 -20 -3 -15 -10 4 -21 -6 -31 -27 -16 -30 -16 -32 0 -25 9 3 19
6 21 6 2 0 4 6 4 13 0 8 11 19 25 25 14 6 25 15 25 19 -1 12 -30 48 -30 37z"/>
<path d="M3980 5751 c4 -15 4 -34 0 -41 -9 -15 -2 -42 10 -35 17 10 18 -25 2
-42 -16 -16 -16 -17 1 -10 20 7 22 -3 5 -22 -11 -10 -10 -11 3 -6 21 8 29 58
12 74 -19 17 -16 31 5 25 13 -5 14 -4 3 4 -8 6 -10 15 -6 22 5 8 4 11 -2 7 -6
-4 -16 6 -22 23 -13 38 -22 39 -11 1z m11 -54 c-10 -9 -11 -8 -5 6 3 10 9 15
12 12 3 -3 0 -11 -7 -18z"/>
<path d="M6248 5758 c8 -10 21 -14 34 -10 16 4 20 2 16 -10 -5 -13 4 -14 54
-12 49 3 58 1 49 -9 -6 -8 -9 -16 -6 -19 3 -3 -1 -11 -10 -18 -16 -13 -20 -30
-7 -30 4 0 15 14 24 31 10 17 22 27 28 24 5 -3 10 -2 10 4 0 5 -5 13 -10 16
-6 4 -8 10 -5 14 2 5 -23 11 -58 15 -34 4 -78 10 -97 13 -31 5 -33 4 -22 -9z"/>
<path d="M6055 5731 c-6 -11 9 -23 19 -14 9 9 7 23 -3 23 -6 0 -12 -4 -16 -9z"/>
<path d="M6090 5730 c0 -5 5 -10 11 -10 5 0 7 5 4 10 -3 6 -8 10 -11 10 -2 0
-4 -4 -4 -10z"/>
<path d="M6467 5733 c-4 -3 -7 -13 -7 -22 1 -13 3 -13 11 2 11 19 8 33 -4 20z"/>
<path d="M8315 5717 c-12 -12 -30 -27 -40 -33 -11 -7 -17 -14 -14 -18 7 -7 76
44 83 62 8 19 -7 14 -29 -11z"/>
<path d="M3811 5716 c-17 -10 -20 -15 -10 -18 8 -3 11 -9 7 -13 -4 -4 -14 -2
-23 5 -13 11 -15 9 -15 -14 0 -14 5 -26 11 -26 5 0 8 -4 4 -9 -3 -5 -1 -12 5
-16 5 -3 10 -2 10 3 0 5 10 13 23 19 17 8 23 20 25 47 3 39 -1 42 -37 22z"/>
<path d="M5395 5710 c10 -11 20 -20 23 -20 3 0 -3 9 -13 20 -10 11 -20 20 -23
20 -3 0 3 -9 13 -20z"/>
<path d="M6005 5700 c3 -5 8 -10 11 -10 2 0 4 5 4 10 0 6 -5 10 -11 10 -5 0
-7 -4 -4 -10z"/>
<path d="M4754 5671 c3 -5 -6 -20 -20 -34 -18 -18 -23 -32 -20 -51 5 -29 -10
-45 -18 -19 -3 10 -3 -1 0 -24 6 -48 -2 -83 -19 -83 -8 0 -8 3 1 12 16 16 15
25 -2 25 -8 0 -12 -6 -9 -14 3 -7 0 -13 -6 -13 -6 0 -8 -7 -4 -17 4 -11 3 -14
-5 -9 -7 4 -13 2 -13 -3 -1 -6 -3 -15 -4 -21 -1 -5 -3 -14 -4 -20 0 -5 -8 -10
-17 -10 -8 0 -13 -4 -10 -9 3 -5 -3 -11 -14 -14 -13 -3 -18 -11 -15 -26 5 -29
-4 -52 -19 -44 -6 3 -8 3 -4 -2 4 -4 0 -14 -10 -21 -9 -7 -14 -16 -10 -20 8
-8 88 70 88 86 0 5 16 26 36 46 19 20 33 43 30 50 -3 8 1 14 9 14 15 0 19 14
15 62 -2 30 28 70 44 61 6 -4 5 1 -3 10 -9 11 -10 17 -2 17 7 0 9 9 5 27 -6
22 -4 25 11 20 13 -6 16 -3 11 9 -3 8 -6 18 -6 20 0 2 -5 4 -11 4 -5 0 -8 -4
-5 -9z"/>
<path d="M6510 5660 c0 -5 5 -10 10 -10 6 0 10 5 10 10 0 6 -4 10 -10 10 -5 0
-10 -4 -10 -10z"/>
<path d="M5845 5650 c-3 -5 -1 -10 4 -10 6 0 11 5 11 10 0 6 -2 10 -4 10 -3 0
-8 -4 -11 -10z"/>
<path d="M6183 5653 c-7 -2 -13 -10 -13 -16 0 -8 4 -7 12 1 15 15 32 16 23 2
-3 -5 -1 -10 5 -10 13 0 8 23 -6 26 -5 1 -15 0 -21 -3z"/>
<path d="M6465 5640 c-8 -13 -1 -24 14 -19 6 3 7 10 2 18 -6 10 -10 10 -16 1z"/>
<path d="M2623 5629 c-18 -18 -5 -37 21 -32 15 3 23 11 22 21 -3 21 -27 27
-43 11z"/>
<path d="M4934 5620 c0 -13 4 -16 10 -10 7 7 7 13 0 20 -6 6 -10 3 -10 -10z"/>
<path d="M6270 5625 c0 -8 -7 -15 -15 -15 -8 0 -15 -9 -15 -19 0 -11 -6 -21
-12 -23 -9 -3 -8 -9 5 -22 9 -10 18 -14 19 -9 8 47 21 73 34 73 8 0 14 7 14
15 0 8 -7 15 -15 15 -8 0 -15 -7 -15 -15z"/>
<path d="M3648 5600 c-10 -9 -18 -22 -18 -28 0 -7 -5 -12 -11 -12 -6 0 -8 8
-4 19 4 15 0 19 -19 19 -17 0 -23 -5 -19 -15 5 -13 1 -13 -25 1 -27 14 -31 14
-26 1 4 -8 10 -15 14 -15 4 0 23 -13 41 -30 19 -16 38 -30 42 -30 4 0 13 14
18 30 10 26 16 30 50 30 28 0 42 5 46 16 6 15 7 15 19 0 12 -17 13 -16 23 2 9
17 7 20 -19 24 -16 3 -35 1 -42 -3 -7 -4 -17 -5 -23 -1 -18 11 -30 10 -47 -8z"/>
<path d="M6868 5593 c7 -3 16 -2 19 1 4 3 -2 6 -13 5 -11 0 -14 -3 -6 -6z"/>
<path d="M4005 5580 c-4 -6 -11 -7 -17 -4 -7 4 -8 2 -4 -5 6 -9 11 -9 22 0 14
11 18 19 10 19 -3 0 -8 -5 -11 -10z"/>
<path d="M4905 5554 c-23 -30 -24 -34 -6 -22 12 7 21 19 21 26 0 7 5 10 10 7
6 -3 10 1 10 9 0 23 -4 20 -35 -20z"/>
<path d="M6033 5566 c8 -16 14 -20 19 -13 4 6 2 17 -4 24 -18 22 -27 15 -15
-11z"/>
<path d="M3476 5565 c-3 -9 -6 -22 -5 -28 0 -7 5 -1 10 12 5 13 8 26 5 28 -2
2 -6 -3 -10 -12z"/>
<path d="M2616 5563 c-11 -12 -6 -19 14 -20 11 -1 20 2 20 7 0 10 -26 20 -34
13z"/>
<path d="M3987 5543 c-11 -10 -8 -49 4 -77 9 -20 9 -29 -1 -41 -12 -14 -11
-18 0 -25 17 -11 33 -3 24 12 -4 7 -2 8 5 4 11 -7 10 25 -3 79 -2 11 -5 28 -5
38 -1 17 -12 22 -24 10z"/>
<path d="M6490 5542 c0 -12 19 -26 26 -19 2 2 -2 10 -11 17 -9 8 -15 8 -15 2z"/>
<path d="M3727 5502 c-38 -31 -37 -41 6 -59 24 -11 56 -6 85 13 2 2 -1 19 -8
38 -14 44 -35 46 -83 8z"/>
<path d="M4026 5486 c3 -8 13 -17 22 -21 13 -5 13 -2 -3 15 -21 24 -26 25 -19
6z"/>
<path d="M2623 5474 c-20 -21 -16 -42 3 -22 9 9 15 21 13 26 -2 6 -9 4 -16 -4z"/>
<path d="M2660 5476 c0 -2 8 -10 18 -17 15 -13 16 -12 3 4 -13 16 -21 21 -21
13z"/>
<path d="M3837 5443 c-10 -9 -8 -25 3 -43 8 -13 11 -12 24 5 19 26 -5 60 -27
38z"/>
<path d="M7322 5413 c2 -10 -7 -22 -22 -30 -14 -7 -22 -13 -17 -13 4 0 0 -11
-9 -25 -9 -14 -12 -25 -8 -25 5 0 1 -7 -10 -15 -16 -12 -16 -16 -5 -27 8 -8
21 -13 29 -12 44 3 44 4 22 24 -26 24 -29 45 -6 36 25 -9 34 2 24 29 -7 20 -6
25 5 25 10 0 14 9 13 25 -1 14 -6 25 -11 25 -4 0 -7 -8 -5 -17z"/>
<path d="M3389 5403 c-13 -16 -12 -17 4 -4 9 7 17 15 17 17 0 8 -8 3 -21 -13z"/>
<path d="M4722 5413 c4 -10 -38 -53 -45 -47 -2 3 -7 -2 -10 -10 -8 -21 11 -31
29 -15 24 20 45 67 34 74 -6 4 -9 3 -8 -2z"/>
<path d="M7455 5410 c-3 -5 1 -10 10 -10 9 0 13 5 10 10 -3 6 -8 10 -10 10 -2
0 -7 -4 -10 -10z"/>
<path d="M4029 5403 c-1 -5 0 -12 1 -18 1 -5 4 -28 5 -50 2 -22 14 -65 28 -95
22 -48 24 -57 11 -71 -8 -8 -14 -23 -14 -31 0 -18 28 -44 37 -35 3 4 12 2 18
-3 9 -8 14 -6 19 5 3 9 18 15 35 15 16 0 32 4 35 8 6 11 -45 10 -61 -1 -7 -5
-13 -6 -13 -2 0 3 -10 1 -21 -6 -17 -8 -20 -8 -14 1 4 7 1 16 -6 21 -12 8 -12
10 0 18 16 10 6 84 -14 105 -11 10 -11 16 -2 26 9 10 9 11 -3 6 -13 -7 -13 -6
0 6 18 16 24 38 9 38 -5 0 -7 5 -4 10 3 6 2 10 -4 10 -5 0 -8 9 -6 20 2 11 0
18 -6 15 -5 -4 -9 -1 -9 4 0 12 -19 15 -21 4z"/>
<path d="M3335 5370 c-3 -6 1 -7 9 -4 18 7 21 14 7 14 -6 0 -13 -4 -16 -10z"/>
<path d="M3209 5353 c-13 -16 -12 -17 4 -4 16 13 21 21 13 21 -2 0 -10 -8 -17
-17z"/>
<path d="M7065 5360 c3 -5 8 -10 11 -10 2 0 4 5 4 10 0 6 -5 10 -11 10 -5 0
-7 -4 -4 -10z"/>
<path d="M7067 5323 c-12 -11 -8 -23 8 -23 8 0 15 -5 15 -11 0 -6 6 -9 13 -6
6 2 22 0 35 -4 22 -9 31 4 11 16 -6 4 -8 13 -5 21 7 17 -6 18 -22 2 -9 -9 -15
-9 -24 0 -14 14 -22 15 -31 5z"/>
<path d="M2849 5263 c-36 -79 -45 -118 -25 -109 9 3 23 9 32 12 13 6 14 -3 9
-70 -4 -53 -3 -76 5 -76 6 0 9 4 6 9 -3 5 3 11 14 14 11 3 32 26 47 52 16 26
40 60 54 76 14 16 32 47 39 69 7 22 17 40 22 40 4 0 8 5 8 11 0 8 -5 8 -15 -1
-8 -7 -15 -9 -15 -4 0 5 -5 2 -10 -6 -8 -12 -10 -12 -10 -1 0 8 -7 11 -20 8
-11 -3 -20 0 -20 6 0 6 -3 8 -6 4 -3 -3 -24 1 -46 9 -22 8 -41 14 -42 14 0 0
-13 -26 -27 -57z m61 -133 c0 -5 -5 -10 -11 -10 -5 0 -7 5 -4 10 3 6 8 10 11
10 2 0 4 -4 4 -10z"/>
<path d="M7165 5300 c3 -5 8 -10 11 -10 2 0 4 5 4 10 0 6 -5 10 -11 10 -5 0
-7 -4 -4 -10z"/>
<path d="M4500 5267 c0 -8 -3 -24 -7 -34 -6 -15 -4 -16 9 -5 16 13 18 35 5 48
-4 4 -7 0 -7 -9z"/>
<path d="M6950 5256 c0 -8 6 -17 13 -19 9 -4 8 -8 -3 -16 -13 -9 -11 -11 6
-11 27 0 46 22 38 45 -5 13 -9 14 -16 3 -7 -10 -11 -10 -15 0 -6 17 -23 15
-23 -2z"/>
<path d="M6820 5226 c0 -9 5 -16 10 -16 6 0 10 4 10 9 0 6 -4 13 -10 16 -5 3
-10 -1 -10 -9z"/>
<path d="M7084 5225 c-17 -13 -17 -14 -1 -15 9 0 17 -4 17 -9 0 -8 22 -6 59 5
11 3 11 7 1 19 -16 19 -51 19 -76 0z"/>
<path d="M7000 5215 c-18 -21 -5 -64 19 -62 19 1 38 37 20 37 -5 0 -9 6 -9 14
0 22 -16 28 -30 11z"/>
<path d="M6900 5160 c-13 -8 -12 -10 4 -10 11 0 16 -5 13 -14 -3 -8 0 -17 8
-19 11 -5 13 10 5 33 -1 3 -2 8 -1 13 1 10 -11 9 -29 -3z"/>
<path d="M7856 5154 c-5 -14 -4 -15 9 -4 17 14 19 20 6 20 -5 0 -12 -7 -15
-16z"/>
<path d="M6240 5150 c0 -5 5 -10 11 -10 5 0 7 5 4 10 -3 6 -8 10 -11 10 -2 0
-4 -4 -4 -10z"/>
<path d="M6800 5130 c0 -5 5 -10 11 -10 5 0 7 5 4 10 -3 6 -8 10 -11 10 -2 0
-4 -4 -4 -10z"/>
<path d="M7645 5091 c-33 -27 -69 -59 -80 -71 l-20 -23 35 19 c19 10 36 22 38
26 2 4 19 12 38 18 19 6 34 16 34 22 0 6 8 17 18 24 11 8 14 16 7 23 -7 6 -30
-6 -70 -38z"/>
<path d="M6266 5115 c4 -8 12 -15 20 -15 20 0 17 7 -6 20 -16 9 -18 8 -14 -5z"/>
<path d="M6281 5066 c-9 -11 -7 -15 11 -19 30 -8 45 8 20 22 -15 8 -23 7 -31
-3z"/>
<path d="M6270 5028 c0 -4 3 -7 8 -6 11 2 46 -14 53 -25 3 -5 19 -7 34 -5 28
3 28 4 11 21 -10 9 -22 15 -27 12 -5 -4 -9 -3 -9 2 0 4 -16 8 -35 9 -19 0 -35
-3 -35 -8z"/>
<path d="M6408 4983 c7 -3 16 -2 19 1 4 3 -2 6 -13 5 -11 0 -14 -3 -6 -6z"/>
<path d="M4420 4921 c0 -6 4 -13 10 -16 6 -3 7 1 4 9 -7 18 -14 21 -14 7z"/>
<path d="M4431 4883 c-1 -17 16 -25 25 -12 4 7 3 9 -4 5 -5 -3 -13 0 -15 6 -4
9 -6 10 -6 1z"/>
</g>
</svg>
